<svg xmlns="http://www.w3.org/2000/svg" width="128" height="128"><defs><linearGradient id="A" x1="63.816" y1="7.969" x2="63.816" y2="120.045" gradientUnits="userSpaceOnUse"><stop offset="0" stop-color="#262757"/><stop offset="1" stop-color="#3b6ba5"/></linearGradient></defs><rect width="112" height="112" x="8" y="8" rx="56" fill="url(#A)"/><path d="M64 8C32.977 8 8 32.976 8 64c0 .227.023.448.035.672C8.738 34.268 33.422 10 64 10s55.262 24.268 55.965 54.672c.013-.224.035-.445.035-.672 0-31.024-24.977-56-56-56z" opacity=".1" fill="#fff"/><path d="M95.997 34.003s-9.597-.269-19.189 4.531c-2.932 1.333-6.13 3.465-8.795 6.13-4.309 4.309-11.004 12.244-16.276 18.656H40.03l-5.33 7.995 9.04 2.444c.027.322.112.778.362 1.394l-1.405 3.089s-.533 1.066 3.465 5.33c4.264 4.267 5.597 3.731 5.597 3.731l3.313-1.503c.496.155.863.208 1.103.208l2.513 9.291 7.995-5.33V77.903c6.458-5.221 14.381-11.782 18.656-15.919 2.665-2.665 4.797-5.863 6.394-8.795 4.528-9.592 4.264-19.186 4.264-19.186zM77.341 57.989c-2.934 0-5.33-2.399-5.33-5.33s2.396-5.33 5.33-5.33 5.33 2.396 5.33 5.33a5.35 5.35 0 0 1-5.33 5.33zM49.358 89.97c.533.269.8.533 1.333.8-.533.533-1.066 1.333-1.602 1.866-6.132 6.13-17.054 5.33-17.054 5.33s-.8-10.93 5.33-17.054c.533-.536 1.333-1.063 1.866-1.602.267.533.53.8.8 1.333-3.998 5.061-3.465 12.793-3.465 12.793s7.726.533 12.793-3.465z" opacity=".2"/><path d="M95.997 32.003s-9.597-.269-19.189 4.531c-2.932 1.333-6.13 3.465-8.795 6.13-4.309 4.309-11.004 12.244-16.276 18.656H40.03l-5.33 7.995 9.04 2.444c.027.322.112.778.362 1.394l-1.405 3.089s-.533 1.066 3.465 5.33c4.264 4.267 5.597 3.731 5.597 3.731l3.313-1.503c.496.155.863.208 1.103.208l2.513 9.291 7.995-5.33V75.903c6.458-5.221 14.381-11.782 18.656-15.919 2.665-2.665 4.797-5.863 6.394-8.795 4.528-9.592 4.264-19.186 4.264-19.186zM77.341 55.989c-2.934 0-5.33-2.399-5.33-5.33s2.396-5.33 5.33-5.33 5.33 2.396 5.33 5.33a5.35 5.35 0 0 1-5.33 5.33zM49.358 87.97c.533.269.8.533 1.333.8-.533.533-1.066 1.333-1.602 1.866-6.132 6.13-17.054 5.33-17.054 5.33s-.8-10.93 5.33-17.054c.533-.536 1.333-1.063 1.866-1.602.267.533.53.8.8 1.333-3.998 5.061-3.465 12.793-3.465 12.793s7.726.533 12.793-3.465z" fill="#fff"/><path d="M119.965 65.328C119.262 95.732 94.579 120 64 120S8.742 95.736 8.035 65.336c-.012.221-.035.44-.035.664a55.88 55.88 0 0 0 56 56 55.88 55.88 0 0 0 56-56c0-.227-.023-.448-.035-.672z" opacity=".2"/></svg>
