<svg xmlns="http://www.w3.org/2000/svg" width="16" height="16"><path d="M15.999.001S13.6-.067 11.202 1.133c-.733.333-1.532.866-2.199 1.532C7.926 3.743 6.252 5.727 4.934 7.33H2.007L.675 9.329l2.26.611a1.18 1.18 0 0 0 .091.348l-.351.772s-.133.267.866 1.333c1.066 1.067 1.399.933 1.399.933l.828-.376c.124.039.216.052.276.052l.628 2.323 1.999-1.333v-3.016l4.664-3.98c.666-.666 1.199-1.466 1.598-2.199C16.065 2.399 15.999.001 15.999.001zm-4.664 5.997c-.734 0-1.333-.6-1.333-1.333s.599-1.333 1.333-1.333 1.333.599 1.333 1.333a1.34 1.34 0 0 1-1.333 1.333zm-6.996 7.995c.133.067.2.133.333.2-.133.133-.267.333-.4.466C2.739 16.191.009 15.991.009 15.991s-.2-2.732 1.333-4.264c.133-.134.333-.266.466-.4.067.133.133.2.2.333-.999 1.265-.866 3.198-.866 3.198s1.932.133 3.198-.866z" fill="#3d3846"/></svg>
