<svg xmlns="http://www.w3.org/2000/svg" xmlns:xlink="http://www.w3.org/1999/xlink" width="600" height="120"><style><![CDATA[.B{fill-opacity:.502}.C{fill:#e0e0e0}.D{fill-opacity:.251}.E{fill:#e53935}]]></style><defs><linearGradient id="A" x1="519.121" y1="123.678" x2="519.121" y2="29.316" gradientUnits="userSpaceOnUse"><stop stop-opacity=".25" stop-color="gray" offset="0"/><stop stop-opacity=".12" stop-color="gray" offset=".535"/><stop stop-opacity=".251" stop-color="gray" offset="1"/></linearGradient><path id="B" d="M460.933 108.519h-18.801a1.923 1.923 0 0 1-1.92-1.92V80.681a1.923 1.923 0 0 1 1.92-1.92h18.801a1.923 1.923 0 0 1 1.92 1.92v25.918a1.923 1.923 0 0 1-1.92 1.92z"/></defs><rect x="467.983" y="29.316" width="102.276" height="94.362" rx="4.5" fill="url(#A)" transform="translate(-467.983 -27.4)" opacity=".5"/><rect x="1.248" y="2.648" width="99.917" height="92.074" rx="4.5" fill="#f2f2f2"/><rect x="8.949" y="17.813" width="16.85" height="15.165" rx="4.5" fill="#0c84e4"/><g class="C"><rect x="30.854" y="17.813" width="66.985" height="1.685" rx=".797"/><rect x="30.854" y="22.868" width="66.985" height="1.685" rx=".797"/><rect x="7.264" y="41.216" width="90.576" height="1.685" rx=".797"/><rect x="7.264" y="46.272" width="90.576" height="1.685" rx=".797"/><rect x="7.264" y="53.012" width="90.576" height="1.685" rx=".797"/><rect x="7.264" y="58.067" width="52.236" height="1.685" rx=".797"/><rect x="7.264" y="64.791" width="90.576" height="1.685" rx=".797"/><rect x="7.264" y="69.846" width="90.576" height="1.685" rx=".797"/><rect x="7.264" y="76.586" width="90.576" height="1.685" rx=".797"/><rect x="7.264" y="81.641" width="52.236" height="1.685" rx=".797"/></g><rect x="15.436" y="23.721" width="102.276" height="94.362" rx="4.5" fill="gray" opacity=".5" class="D"/><rect x="16.684" y="24.453" width="99.917" height="92.074" rx="4.5" fill="#fff"/><rect x="24.384" y="39.619" width="16.85" height="15.165" rx="4.5" fill="#2196f3"/><g class="C"><rect x="46.29" y="39.619" width="66.985" height="1.685" rx=".797"/><rect x="46.29" y="44.674" width="66.985" height="1.685" rx=".797"/><rect x="22.699" y="63.022" width="90.576" height="1.685" rx=".797"/><rect x="22.699" y="68.077" width="90.576" height="1.685" rx=".797"/><rect x="22.699" y="74.817" width="90.576" height="1.685" rx=".797"/><rect x="22.699" y="79.872" width="52.236" height="1.685" rx=".797"/><rect x="22.699" y="86.596" width="90.576" height="1.685" rx=".797"/><rect x="22.699" y="91.651" width="90.576" height="1.685" rx=".797"/><rect x="22.699" y="98.391" width="90.576" height="1.685" rx=".797"/><rect x="22.699" y="103.447" width="52.236" height="1.685" rx=".797"/></g><path d="M331.7 41.02h72.986v59.948H331.7z" fill="gray" opacity=".5" class="D"/><path d="M332.55 42.154h71.144v57.822H332.55z" fill="#f2f2f2"/><path d="M332.55 42.154h71.144V55.05H332.55z" class="E"/><path d="M332.55 42.154h71.144V55.05H332.55z" opacity=".1"/><path d="M338.219 59.727h59.806v7.511h-59.806zm0 13.18h43.65v2.551h-43.65zm0 4.393h28.344v2.551h-28.344zm0 4.394h37.414v2.551h-37.414zm0 4.393h43.65v2.551h-43.65zm0 4.393h14.597v2.551h-14.597z" class="C"/><path d="M286 19.032h90.464v74.304H286z" fill="gray" opacity=".5" class="D"/><path d="M287.054 20.438h88.181v71.669h-88.181z" fill="#fff"/><path d="M287.054 20.438h88.181v15.985h-88.181z" class="E"/><path d="M294.08 42.219h74.128v9.31H294.08z" fill="#f5f5f5"/><path d="M294.08 58.556h54.103v3.162H294.08zm0 5.445h35.132v3.162H294.08zm0 5.445h46.374v3.162H294.08zm0 5.446h54.103v3.162H294.08zm0 5.445h18.093v3.162H294.08z" class="C"/><path d="M297.945 45.381h21.079v2.811h-21.079z" class="B E"/><g fill="#f9ae1d"><path d="M251.229 60l.089-2.868A47.318 47.318 0 0 0 204 9.815V60z" class="B"/><path d="M200.32 65.019V14.833a47.318 47.318 0 1 0 47.229 50.185z"/></g><g fill="#4caf50"><use xlink:href="#B" class="B"/><path d="M495.219 108.519h-18.801a1.923 1.923 0 0 1-1.92-1.92V56.098a1.923 1.923 0 0 1 1.92-1.92h18.801a1.923 1.923 0 0 1 1.92 1.92v50.501a1.923 1.923 0 0 1-1.92 1.92z" class="B"/><use xlink:href="#B" x="68.573" class="B"/><path d="M563.793 108.519h-18.801a1.881 1.881 0 0 1-1.92-1.833V46.307a1.881 1.881 0 0 1 1.92-1.833h18.801a1.881 1.881 0 0 1 1.92 1.833v60.379a1.881 1.881 0 0 1-1.92 1.833zm34.287 0h-18.801a1.923 1.923 0 0 1-1.92-1.92V28.927a1.923 1.923 0 0 1 1.92-1.92h18.801a1.923 1.923 0 0 1 1.92 1.92v77.671a1.923 1.923 0 0 1-1.92 1.92z" class="B"/><circle cx="451.532" cy="67.116" r="3.882"/><circle cx="485.819" cy="41.886" r="3.882"/><circle cx="520.105" cy="67.116" r="3.882"/><circle cx="554.392" cy="29.595" r="3.882"/><circle cx="588.679" cy="15.362" r="3.882"/><path d="M451.92 67.634l-.775-1.035 34.675-25.972 34.204 25.62 33.991-37.196.136-.055 34.287-13.814.484 1.2-34.15 13.759-34.583 37.846-34.368-25.742z"/></g></svg>
