<svg xmlns="http://www.w3.org/2000/svg" xmlns:xlink="http://www.w3.org/1999/xlink" width="600" height="160"><style><![CDATA[.B{opacity:.2}.C{opacity:.1}.D{fill:#fff}.E{color-interpolation-filters:sRGB}.F{filter:url(#G)}.G{clip-path:url(#D)}]]></style><defs><filter id="A" x="-.025" width="1.049" y="-.023" height="1.047" class="E"><feGaussianBlur stdDeviation="4.592"/></filter><clipPath id="B"><path d="M232 221.2l-26.726 20.054c-.058.037-.11.082-.164.123l-.033.025v.003c-.652.512-1.077 1.299-1.077 2.196v33.6c0 1.551 1.249 2.8 2.8 2.8h50.4c1.551 0 2.8-1.249 2.8-2.8v-33.6c0-.917-.444-1.721-1.121-2.231l.011-.016L232 221.2z" fill="#fe9700" fill-opacity="1" stroke="none"/></clipPath><filter id="C" x="-.055" width="1.109" y="-.067" height="1.133" class="E"><feGaussianBlur stdDeviation="1"/></filter><clipPath id="D"><path d="M160 238l-19.09 14.324c-.041.027-.078.058-.117.088l-.023.018v.002c-.466.365-.77.928-.77 1.568v24c0 1.108.892 2 2 2h36c1.108 0 2-.892 2-2v-24a1.99 1.99 0 0 0-.801-1.594l.008-.012z" fill="#fe9700" fill-opacity="1" stroke="none"/></clipPath><filter id="E" x="-.103" width="1.206" y="-.144" height="1.288" class="E"><feGaussianBlur stdDeviation="1.801"/></filter><filter id="F" x="-.051" width="1.103" y="-.072" height="1.144" class="E"><feGaussianBlur stdDeviation=".9"/></filter><filter id="G" x="-.024" width="1.048" y="-.024" height="1.048" class="E"><feGaussianBlur stdDeviation="4.48"/></filter><clipPath id="H"><path d="M0 500h500V0H0z"/></clipPath><path id="I" d="M91 73a7 7 0 1 0 0 14 7 7 0 1 0 0-14zm0 4a3 3 0 1 1 0 6 3 3 0 1 1 0-6z"/><path id="J" d="M464-214.406L250.188-53.969c-.46.299-.877.653-1.312.984l-.25.203v.016C243.411-48.671 240-42.377 240-35.203V232c0 22.07 18.288 23.732 22.578 23.875l-.172.125h403.188C687.936 254.917 688 232 688 232V-35.203c0-7.336-3.55-13.763-8.969-17.844l.094-.125L464-214.407z"/><path id="K" d="M140 254l38 26-40 4c-1.102.11-2.157-.903-2-2z"/></defs><g opacity=".6"><circle r="28" cy="81" cx="108" class="B"/><circle r="28" cy="80" cx="108" fill="#008dda"/><path d="M108 70a11 11 0 0 0-10.617 8.139A7 7 0 0 0 84 81a7 7 0 0 0 13.387 2.842 11 11 0 0 0 21.23.02A7 7 0 0 0 132 81a7 7 0 0 0-13.387-2.842A11 11 0 0 0 108 70zm.125 4a7 7 0 1 1 0 14 7 7 0 1 1 0-14zM91 78a3 3 0 1 1 0 6 3 3 0 1 1 0-6zm34 0a3 3 0 1 1 0 6 3 3 0 1 1 0-6z" class="B"/><g class="D"><path d="M108 69c-6.075 0-11 4.925-11 11s4.925 11 11 11 11-4.925 11-11-4.925-11-11-11zm.125 4a7 7 0 1 1 0 14 7 7 0 1 1 0-14z"/><use xlink:href="#I"/><use xlink:href="#I" x="34"/><path d="M108 52c-15.464 0-28 12.536-28 28l.021.586C80.248 65.292 92.705 53.01 108 53c15.23.008 27.66 12.188 27.979 27.414L136 80c0-15.464-12.536-28-28-28z" class="B"/></g></g><g transform="translate(2 -70)" opacity=".8"><g transform="matrix(0 -.1875 -.1875 0 99 144.375)" class="F"><rect rx="224" y="-688" x="-256" height="448" width="448" stroke="#000" stroke-width="8" class="C"/><rect width="448" height="448" x="-256" y="-688" rx="224" class="B"/></g><g class="D"><rect transform="matrix(0 -1 -1 0 0 0)" width="84" height="84" x="-191.625" y="-228" rx="42"/><path d="M186 107.625a41.91 41.91 0 0 0-42 42V150a41.91 41.91 0 1 1 84 0v-.375a41.91 41.91 0 0 0-42-42z" class="B"/></g><path d="M186 191.625a41.91 41.91 0 0 1-42-42v-.375a41.91 41.91 0 1 0 84 0v.375a41.91 41.91 0 0 1-42 42z" class="B"/><g clip-path="url(#H)" transform="matrix(.224999 0 0 -.224999 129.74253 205.75815)"><path d="M372.466 250a133.64 133.64 0 0 1-2.121 23.648H252.534v-47.296h71.299c-4.626-16.372-14.354-30.373-27.363-40.04l36.789-29.273c24.249 22.879 39.207 56.044 39.207 92.961" fill="#3284ff"/><path d="M254.071 324.324c17.925 0 34.071-6.489 46.578-17.294l34.048 34.534C313.436 362.301 284.733 375 252.534 375c-47.989 0-90.779-28.187-111.606-69.213l41.798-31.867c10.686 29.38 39.085 50.404 71.345 50.404" fill="#ff3424"/><path d="M141.71 192.703l40.305 32.064c-2.454 7.417-3.805 15.323-3.805 23.543 0 8.988 1.606 17.607 4.516 25.61l-41.798 31.867c-8.526-16.796-13.394-35.73-13.394-55.787 0-20.659 5.166-40.128 14.176-57.297" fill="#fb0"/><path d="M182.016 224.768l-40.305-32.064C162.814 152.499 205.137 125 252.535 125c31.474 0 59.616 12.125 80.724 32.039l-36.789 29.274a70.58 70.58 0 0 0-42.398-14.015c-33.012 0-61.974 22.012-72.056 52.47" fill="#26b14c"/></g></g><g transform="matrix(.1875 0 0 .1875 325 76.475563)" opacity=".8"><path d="M464-216.406L250.188-55.969c-.46.299-.877.653-1.312.984l-.25.203v.016C243.411-50.671 240-44.377 240-37.203V230c0 22.07 18.288 23.732 22.578 23.875l-.172.125h403.188C687.936 252.917 688 230 688 230V-37.203c0-7.336-3.55-13.763-8.969-17.844l.094-.125L464-216.407z" class="B"/><use xlink:href="#J" stroke="#000" stroke-width="8" filter="url(#A)" class="C"/><use xlink:href="#J" filter="url(#A)" class="B"/><path d="M464-218.4L250.194-57.969c-.46.299-.877.653-1.313.984l-.262.198v.024C243.404-52.668 240-46.371 240-39.197v236.8c0 12.41 9.99 22.4 22.4 22.4h403.2c12.41 0 22.4-9.99 22.4-22.4v-236.8c0-7.336-3.55-13.769-8.969-17.85l.09-.131L464-218.397z" fill="#f5a816"/><rect clip-path="url(#B)" width="44" height="36" x="210" y="227" rx="3" ry="2.998" transform="matrix(8 0 0 8 -1392 -1988)" filter="url(#C)" class="B"/><path d="M464-218.4L250.193-57.969c-.46.299-.877.653-1.312.984l-.262.197v.025C243.405-52.667 240-46.371 240-39.197v2c0-7.174 3.405-13.47 8.619-17.564v-.025l.262-.197c.436-.332.852-.685 1.313-.984L464-216.4 679.121-55.182l-.09.133C684.45-50.968 688-44.535 688-37.199v-2c0-7.336-3.55-13.769-8.969-17.85l.09-.133z" class="C D"/><rect ry="23.981" rx="24" y="-180" x="288" height="368" width="352" opacity="1" fill="#ececec"/><use xlink:href="#K" transform="matrix(11.2 0 0 11.2 -1327.9999 -2883.9999)" filter="url(#E)" class="B G"/><path d="M240-39.2L665.6 252H264c-1.6 0-24 0-24-24z" fill="#f6be1a"/><use xlink:href="#K" transform="matrix(-11.2 0 0 11.2 2255.9999 -2883.9999)" filter="url(#F)" class="C G"/><path d="M664 252c24 0 24-24 24-24V-39.2L262.4 252z" fill="#f9ce1d"/><g class="D"><path d="M688-39.199L262.4 252h2.924L688-37.199z" class="C"/><path d="M240-39.199v2l222.539 152.256 1.461-1zM312-180c-13.296 0-24 10.699-24 23.984v2C288-167.301 298.704-178 312-178h304c13.296 0 24 10.699 24 23.984v-2C640-169.301 629.296-180 616-180z" class="C"/></g><path d="M464-116a80 80 0 1 0 0 160h56c4.432 0 8-3.568 8-8s-3.568-8-8-8h-56a64 64 0 1 1 0-128 64 64 0 0 1 64 64v24c0 4.432-3.568 8-8 8s-8-3.568-8-8v-24a48 48 0 1 0-96 0 48 48 0 0 0 82.094 33.75C501.825 6.142 510.193 12 520 12a23.95 23.95 0 0 0 24-24v-24a80 80 0 0 0-80-80zm0 48a32 32 0 1 1 0 64 32 32 0 1 1 0-64z" opacity="1" fill="#848484"/></g><g opacity=".6"><path d="M516.51 56h-12.207a3.49 3.49 0 0 0-2.468 1.022l-28.813 28.813A3.49 3.49 0 0 0 472 88.303v12.207a3.49 3.49 0 0 0 3.49 3.49h12.207a3.49 3.49 0 0 0 2.468-1.022l28.813-28.813A3.49 3.49 0 0 0 520 71.697V59.49a3.49 3.49 0 0 0-3.49-3.49z" fill="#28a8ea"/><path d="M516.51 104h-12.207a3.49 3.49 0 0 1-2.468-1.022L496 97.143V86.24a6.24 6.24 0 0 1 6.24-6.24h10.903l5.835 5.835A3.49 3.49 0 0 1 520 88.303v12.207a3.49 3.49 0 0 1-3.49 3.49z" fill="#0078d4"/><path d="M475.49 56h12.207a3.49 3.49 0 0 1 2.468 1.022L496 62.857V73.76a6.24 6.24 0 0 1-6.24 6.24h-10.903l-5.835-5.835A3.49 3.49 0 0 1 472 71.697V59.49a3.49 3.49 0 0 1 3.49-3.49z" fill="#50d9ff"/><path d="M494 68.33v26.34c.002.134-.011.269-.04.4-.188 1.117-1.157 1.934-2.29 1.93H472V66h19.67c.618-.001 1.212.244 1.649.681s.682 1.031.681 1.649z" class="B"/><path d="M495 68.33v24.34c-.017 1.832-1.498 3.313-3.33 3.33H472V65h19.67c1.836.006 3.324 1.494 3.33 3.33z" class="C"/><path d="M494 68.33v24.34c.001.618-.244 1.212-.681 1.649s-1.031.682-1.649.681H472V66h19.67c.618-.001 1.212.244 1.649.681s.682 1.031.681 1.649z" class="B"/><path d="M493 68.33v24.34c.001.618-.244 1.212-.681 1.649s-1.031.682-1.649.681H472V66h18.67c.618-.001 1.212.244 1.649.681s.682 1.031.681 1.649z" class="C"/><rect x="465" y="66" width="28" height="28" rx="2.333" fill="#0078d4"/><path d="M483.585 74.881h-6.547v3.829h6.145v2.454h-6.145v3.977h6.896v2.443h-9.868V72.417h9.519z" class="D"/></g><g opacity=".4"><rect rx="3" y="-126" x="-283" height="28" width="28" transform="matrix(0 -1 -1 0 432 -188)" class="B"/><path d="M533 66c-1.662 0-3 1.338-3 3v11h14V66z" fill="#f35325"/><path d="M530 80v11c0 1.662 1.338 3 3 3h11V80z" fill="#05a6f0"/><path d="M544 66v14h14V69c0-1.662-1.338-3-3-3z" fill="#81bc06"/><path d="M544 80v13c0 .353-.071.686-.182 1H555c1.662 0 3-1.338 3-3V80z" fill="#ffba08"/><path d="M533 66c-1.662 0-3 1.338-3 3v1c0-1.662 1.338-3 3-3h22c1.662 0 3 1.338 3 3v-1c0-1.662-1.338-3-3-3z" class="B D"/></g><g opacity=".4"><path d="M55.5 68c-.831 0-1.5.669-1.5 1.5V77h-8l3 3v12.5c0 .831.669 1.5 1.5 1.5h14c.831 0 1.5-.669 1.5-1.5V85h3.5c.831 0 1.5-.669 1.5-1.5V71l3-3h-8z" class="B"/><path d="M55.5 67c-.831 0-1.5.669-1.5 1.5v14c0 .831.669 1.5 1.5 1.5h14c.831 0 1.5-.669 1.5-1.5V70l3-3h-8z" opacity="1" fill="#8bc34a"/><path d="M55.5 67c-.831 0-1.5.669-1.5 1.5v1c0-.831.669-1.5 1.5-1.5H73l1-1h-8z" class="C D"/><path d="M46 76l3 3v12.5c0 .831.669 1.5 1.5 1.5h14c.831 0 1.5-.669 1.5-1.5v-14c0-.831-.669-1.5-1.5-1.5h-14z" opacity="1" fill="#4caf50"/><path d="M64.438 76c.831 0 1.5.669 1.5 1.5v1c0-.831-.669-1.5-1.5-1.5h-17.5l-1-1h8z" class="C D"/></g><g transform="matrix(.25 0 0 .25 184 73)"><g transform="matrix(0 -1 -1 0 0 0)"><rect rx="36" y="-688" x="-254" height="448" width="448" class="B"/><rect width="448" height="448" x="-256" y="-688" rx="36" class="C F"/><rect rx="36" y="-688" x="-256" height="448" width="448" class="B F"/><rect width="448" height="448" x="-252" y="-688" rx="36" fill="#2196f3"/></g><g class="D"><path d="M276-196c-19.944 0-36 16.056-36 36v2c0-19.944 16.056-36 36-36h376c19.944 0 36 16.056 36 36v-2c0-19.944-16.056-36-36-36z" class="B"/><path d="M464-80c41.421 0 76.694 25.359 91.875 61.25C594.432-13.018 624 19.849 624 60c0 44.183-35.817 80-80 80H374c-38.66 0-70-31.34-70-70 0-35.931 27.016-65.374 61.875-69.375C374.966-45.243 415.463-80 464-80z"/></g></g></svg>
