<svg xmlns="http://www.w3.org/2000/svg" xmlns:xlink="http://www.w3.org/1999/xlink" width="600" height="257"><defs><linearGradient id="A" x1="419.668" y1="201.737" x2="299.813" y2="65.619" gradientUnits="userSpaceOnUse"><stop offset="0" stop-color="#3b6ba5" stop-opacity=".6"/><stop offset="1" stop-color="#262757" stop-opacity="0"/></linearGradient><linearGradient xlink:href="#C"  id="B" x1="84" y1="94" x2="84" y2="53.999"/><linearGradient id="C" gradientUnits="userSpaceOnUse"><stop offset="0" stop-color="#eef4fc"/><stop offset="1" stop-color="#fff"/></linearGradient><linearGradient xlink:href="#C"  id="D" x1="488.338" y1="223.182" x2="488.338" y2="192.05"/></defs><path d="M212.907 179.116s-18.222 19.495-38.629 66.737c0 0 39.732-14.743 67.044-39.467s-28.415-27.27-28.415-27.27z" fill="#fa4444"/><path d="M218.531 178.116s-15.371 16.445-32.586 56.296c0 0 33.516-12.437 56.556-33.293s-23.97-23.003-23.97-23.003z" fill="#f88052"/><path d="M218.797 187.116s-9.364 10.018-19.852 34.296c0 0 20.418-7.577 34.454-20.282s-14.603-14.014-14.603-14.014z" fill="#f8bc52"/><path d="M267.52 91.728l-61.253-.838-43.137 35.755 56.374 18.721 54.942-41.281zm60.882 60.882l.827 61.242L293.485 257l-17.554-57.817 40.114-53.5z" fill="#c2c9ce"/><ellipse cx="296.522" cy="-29.759" rx="21.825" ry="12.6" transform="rotate(45)" fill="#424f56"/><path d="M270.989 195.047l-8.316 8.316-46.446-47.04 8.019-8.019z" fill="#494949"/><g transform="rotate(45)"><ellipse cx="296.522" cy="-42.374" rx="33.09" ry="19.11" fill="#2b383f"/><ellipse cx="296.417" cy="-59.579" rx="40.38" ry="23.31" fill="#edf5f9"/></g><path d="M311.919 168.944h0l-7.075 7.075-4.264 4.009-4.964 4.561-4.635 4.105c-6.428 5.558-10.829 9.981-13.301 10.967-13.492 5.409-21.956-13.47-25.307-23.61-1.241-3.744-1.856-6.417-1.856-6.417l-.615-.615s-3.012-.891-7.043-2.63c-9.938-4.211-27.63-11.741-22.38-23.992.944-2.196 5.505-8.008 10.554-13.82l4.094-4.624 4.561-4.943c1.326-1.326 2.62-2.768 4.009-4.221l7.075-7.075c36.815-37.197 99.914-92.447 138.13-104.74 11.052-3.564 20.015-3.532 25.657 1.58h0l.615.615c5.028 5.579 5.134 14.573 1.612 25.604-12.378 37.94-67.214 100.985-104.867 138.172z" fill="#edf5f9"/><path d="M402.105.484c-3.932.058-8.368.929-13.203 2.488-38.216 12.293-101.315 67.543-138.131 104.74l-7.074 7.074-4.008 4.223-4.562 4.941-4.094 4.625c-5.049 5.812-9.609 11.625-10.553 13.82-.266.62-.457 1.224-.609 1.82a40.38 23.31 45 0 0 15.373 39.736 40.38 23.31 45 0 0 35.143 16.344c2.242.541 4.672.417 7.295-.635 2.471-.986 6.873-5.411 13.301-10.969 1.474-1.262 3.033-2.672 4.635-4.104s3.298-2.895 4.963-4.561c1.389-1.283 2.834-2.578 4.266-4.01l7.074-7.074c37.653-37.187 92.489-100.232 104.867-138.172 3.521-11.031 3.414-20.026-1.613-25.605l-.615-.615c-3.174-2.876-7.397-4.143-12.453-4.068z" fill="url(#A)" opacity=".9"/><circle cx="296.627" cy="-201.704" r="15.255" transform="rotate(45)" fill="#2b383f"/><path d="M340.006 79.488a17.49 17.49 0 1 1 24.735 0 17.505 17.505 0 0 1-24.735 0zm21.574-21.574a13.02 13.02 0 1 0-.01 18.402 13.035 13.035 0 0 0 .01-18.402z" fill="#424f56"/><path d="M493.556 169.268a29.428 29.428 0 0 0-26.713 17.164 22.072 22.072 0 0 0-10.065-2.454c-11.609.017-21.22 9.017-21.993 20.6h-.075c-8.125 0-14.71 6.586-14.71 14.71S426.585 234 434.71 234h82.384a17.654 17.654 0 0 0 5.834-34.296 30.938 30.938 0 0 0 .05-1.011c0-16.25-13.172-29.423-29.422-29.423z" fill="url(#D)"/><path d="M84 54a20 20 0 1 0 0 40h27.5a12.5 12.5 0 1 0 0-25 12.5 12.5 0 0 0-7.643 2.611A20 20 0 0 0 84 54z" fill="url(#B)"/><path d="M295.225 119.602l5.293 5.293-69.484 69.484-5.293-5.293z" fill="#c2c9ce"/></svg>
