<svg xmlns="http://www.w3.org/2000/svg" xmlns:xlink="http://www.w3.org/1999/xlink" width="600" height="256"><style><![CDATA[.B{opacity:.2}.C{opacity:.1}.D{filter:url(#A)}.E{fill:#fff}.F{color-interpolation-filters:sRGB}]]></style><defs><filter id="A" x="-.023" width="1.045" y="-.025" height="1.051" class="F"><feGaussianBlur stdDeviation="4.24"/></filter><linearGradient id="B" x1="-200.5" y1="-304.5" x2="-227.5" y2="-304.5" gradientUnits="userSpaceOnUse"><stop offset="0"/><stop offset="1" stop-opacity="0"/></linearGradient><filter id="C" class="F"><feGaussianBlur stdDeviation="2.4"/></filter><filter id="D" x="-.068" width="1.136" y="-.054" height="1.108" class="F"><feGaussianBlur stdDeviation=".34"/></filter><path id="E" d="M264-158a23.95 23.95 0 0 0-24 24v304a23.95 23.95 0 0 0 24 24h104v40c0 4.432 3.568 8 8 8h176c4.432 0 8-3.568 8-8v-40h104a23.95 23.95 0 0 0 24-24v-304a23.95 23.95 0 0 0-24-24z"/><path id="F" d="M264.002-160a23.95 23.95 0 0 0-24 24v352a23.95 23.95 0 0 0 24 24H664a23.95 23.95 0 0 0 24-24v-352a23.95 23.95 0 0 0-24-24z"/><path id="G" d="M221 55.5c-3.324 0-6 2.676-6 6v88c0 3.324 2.676 6 6 6h100c3.324 0 6-2.676 6-6v-88c0-3.324-2.676-6-6-6z"/><path id="H" d="M221 155c-3.324 0-6-2.676-6-6v-6h112v6c0 3.324-2.676 6-6 6z"/></defs><g transform="matrix(.5625 0 0 .5625 39 107.12501)" class="D"><use xlink:href="#E" class="C"/><use xlink:href="#E" class="B"/></g><path d="M187.5 17.125a13.47 13.47 0 0 0-13.5 13.5v171a13.47 13.47 0 0 0 13.5 13.5H246v22.5a4.49 4.49 0 0 0 4.5 4.5h99a4.49 4.49 0 0 0 4.5-4.5v-22.5h58.5a13.47 13.47 0 0 0 13.5-13.5v-171a13.47 13.47 0 0 0-13.5-13.5z" class="B"/><g transform="matrix(0 -1 -1 0 0 0)"><rect width="58.5" height="108" x="-241" y="-354" ry="4.5" fill="#b0bec5"/><rect ry="4.5" y="-354" x="-241" height="108" width="58.5" fill="url(#B)" class="B"/><rect rx="13.5" y="-426" x="-214" height="252" width="198" fill="#cfd8dc"/></g><path d="M187.5 16A13.47 13.47 0 0 0 174 29.5v1.125a13.47 13.47 0 0 1 13.5-13.5h225a13.47 13.47 0 0 1 13.5 13.5V29.5A13.47 13.47 0 0 0 412.5 16z" class="B E"/><path d="M368 191h192" transform="matrix(.5625 0 0 .5625 39 107.12501)" fill="none" stroke="#000" stroke-width="2" filter="url(#C)" class="B"/><g transform="matrix(0 -1 -1 0 0 0)"><rect ry="2.25" y="-417" x="-170.125" height="234" width="144" opacity=".5" class="E"/><rect width="144" height="234" x="-169" y="-417" ry="2.25" opacity=".8" fill="#263238"/></g><g transform="matrix(.25 0 0 .25 154.99974 96.00004)" class="D"><use xlink:href="#F" class="C"/><use xlink:href="#F" class="B"/></g><use xlink:href="#G" class="B"/><g fill="#78909c"><use xlink:href="#H"/><path d="M215 143V61c0-3.324 2.676-6 6-6h100c3.324 0 6 2.676 6 6v82z"/></g><path d="M215 148.5v.5c0 3.324 2.676 6 6 6h100c3.324 0 6-2.676 6-6v-.5c0 3.324-2.676 6-6 6H221c-3.324 0-6-2.676-6-6z" class="B"/><path d="M221 55c-3.324 0-6 2.676-6 6v.5c0-3.324 2.676-6 6-6h100c3.324 0 6 2.676 6 6V61c0-3.324-2.676-6-6-6z" class="C E"/><g transform="matrix(.25 0 0 .25 212.99974 80.00004)" class="D"><use xlink:href="#F" class="C"/><use xlink:href="#F" class="B"/></g><use xlink:href="#G" x="58" y="-16" class="B"/><use xlink:href="#H" x="58" y="-16" class="E"/><path d="M273 127V45c0-3.324 2.676-6 6-6h100c3.324 0 6 2.676 6 6v82z" fill="#03a9f4"/><path d="M273 132.5v.5c0 3.324 2.676 6 6 6h100c3.324 0 6-2.676 6-6v-.5c0 3.324-2.676 6-6 6H279c-3.324 0-6-2.676-6-6z" class="B"/><path d="M279 39c-3.324 0-6 2.676-6 6v.5c0-3.324 2.676-6 6-6h100c3.324 0 6 2.676 6 6V45c0-3.324-2.676-6-6-6z" class="C E"/><path d="M683-274.323v12.667c0 1 1 1 1 1h10c1 0 1-1 1-1 .019-.046.005-7.12 0-9.667l-4-4h-7s-1 0-1 1z" filter="url(#D)" transform="matrix(1.5 0 0 1.5 -742.50037 461.48527)" class="C"/><path d="M282 49.5v19c0 1.5 1.5 1.5 1.5 1.5h15c1.5 0 1.5-1.5 1.5-1.5.028-.069.007-10.679 0-14.5l-6-6h-10.5s-1.5 0-1.5 1.5z" fill="#eee"/><path d="M300.014 54.015L293.999 48v4.514c0 1.5 1.5 1.5 1.5 1.5z" class="E"/><path d="M277.154 135.003l.575.997h3.464l.576-.997zm5.769-2.003l-.581 1.006h-3.684l3.684-2.012zM276 133l.581-1.006h3.684l-3.684 2.012zm1.154-2.003l.575-.997h3.464l.576.997z" fill="#4d4d4d"/></svg>
