<svg xmlns="http://www.w3.org/2000/svg" xmlns:xlink="http://www.w3.org/1999/xlink" width="600" height="300"><defs><filter id="A" x="-.023" width="1.045" y="-.025" height="1.051" color-interpolation-filters="sRGB"><feGaussianBlur stdDeviation="4.24"/></filter><path id="B" d="M264.002-160a23.95 23.95 0 0 0-24 24v352a23.95 23.95 0 0 0 24 24H664a23.95 23.95 0 0 0 24-24v-352a23.95 23.95 0 0 0-24-24z"/><path id="C" d="M221 77.5c-3.324 0-6 2.676-6 6v88c0 3.324 2.676 6 6 6h100c3.324 0 6-2.676 6-6v-88c0-3.324-2.676-6-6-6z"/><path id="D" d="M221 177c-3.324 0-6-2.676-6-6v-6h112v6c0 3.324-2.676 6-6 6z"/><linearGradient id="E" x1="138.048" y1="265.034" x2="165.826" y2="264.996" gradientUnits="userSpaceOnUse"><stop offset="0" stop-color="#029be9"/><stop offset="1" stop-color="#22c5fd"/></linearGradient></defs><g transform="matrix(.75 0 0 .677307 -47.83275 123.44626)" filter="url(#A)"><use xlink:href="#B" opacity=".1"/><use xlink:href="#B" opacity=".2"/></g><g transform="matrix(3 0 0 3 -686.83196 -200.00017)"><use xlink:href="#C" x="58" y="-16" transform="matrix(1 0 0 .9 0 16.15)" opacity=".2"/><use xlink:href="#D" x="58" y="-16" fill="#fff"/></g><path d="M132.168 247V33c-.022-9.95 8.05-18.022 18-18h300c9.95-.022 18.022 8.05 18 18v214z" fill="#78909c"/><path d="M132.168 263.5v1.5a17.96 17.96 0 0 0 18 18h300a17.96 17.96 0 0 0 18-18v-1.5a17.96 17.96 0 0 1-18 18h-300a17.96 17.96 0 0 1-18-18z" opacity=".2"/><path d="M150.168 15a17.96 17.96 0 0 0-18 18v1.5a17.96 17.96 0 0 1 18-18h300a17.96 17.96 0 0 1 18 18V33a17.96 17.96 0 0 0-18-18z" opacity=".1" fill="#fff"/><rect width="28" height="28" x="138" y="251" rx="8" opacity=".8" fill="url(#E)"/><g fill="#fff"><path d="M145.077 271.009l1.725 2.991h10.392l1.728-2.991zM162.384 265l-1.743 3.018h-11.052l11.052-6.036zm-20.769 0l1.743-3.018h11.052l-11.052 6.036zm3.462-6.009l1.725-2.991h10.392l1.728 2.991z"/><rect width="150" height="180" x="138" y="63" rx="8"/></g><g fill="#e4e8ee"><rect width="75" height="10" x="144" y="227" rx="4"/><circle cx="276" cy="231" r="6"/><circle r="6" cy="231" cx="261"/><circle cx="246" cy="231" r="6"/><circle r="6" cy="231" cx="231"/><circle cx="231" cy="75" r="6"/><path d="M241 74h34v2h-34zm-6 25h12v2h-12z"/><rect width="6" height="6" x="225" y="97" rx="2"/><path d="M235 111h18v2h-18z"/><rect rx="2" y="109" x="225" height="6" width="6"/><path d="M235 123h22v2h-22z"/><rect width="6" height="6" x="225" y="121" rx="2"/><path d="M235 135h20v2h-20z"/><rect rx="2" y="133" x="225" height="6" width="6"/><path d="M235 147h16v2h-16z"/><rect width="6" height="6" x="225" y="145" rx="2"/><path d="M235 159h18v2h-18z"/><rect rx="2" y="157" x="225" height="6" width="6"/><path d="M235 171h21v2h-21z"/><rect width="6" height="6" x="225" y="169" rx="2"/><path d="M235 193h23v2h-23z"/><rect rx="2" y="191" x="225" height="6" width="6"/><path d="M235 205h21v2h-21z"/><rect width="6" height="6" x="225" y="203" rx="2"/><path d="M160 74h36v2h-36z"/></g><rect width="12" height="12" x="144" y="69" rx="4" fill="#fa4444"/><path d="M160 92h20v2h-20z" fill="#e4e8ee"/><rect rx="4" y="87" x="144" height="12" width="12" fill="#2ac88d"/><path d="M160 110h26v2h-26z" fill="#e4e8ee"/><rect width="12" height="12" x="144" y="105" rx="4" fill="#f9ce1d"/><path d="M160 128h22v2h-22z" fill="#e4e8ee"/><rect rx="4" y="123" x="144" height="12" width="12" fill="#15a6f0"/><path d="M160 146h30v2h-30z" fill="#e4e8ee"/><rect width="12" height="12" x="144" y="141" rx="4" fill="#646c72"/><path d="M160 164h16v2h-16z" fill="#e4e8ee"/><rect rx="4" y="159" x="144" height="12" width="12" fill="#9c68da"/><path d="M160 182h24v2h-24z" fill="#e4e8ee"/><rect width="12" height="12" x="144" y="177" rx="4" fill="#f88052"/></svg>
