<svg xmlns="http://www.w3.org/2000/svg" xmlns:xlink="http://www.w3.org/1999/xlink" width="600" height="264"><style><![CDATA[.B{opacity:.2}.C{fill:#fff}.D{opacity:1}.E{opacity:.1}.F{opacity:.75}.G{fill:#785439}.H{fill-rule:evenodd}.I{fill:#583c28}.J{fill:#b8845b}.K{fill:#956b49}.L{fill:#72b248}.M{opacity:.8}.N{fill:#3f3f3f}.O{fill:#6b6b6b}.P{fill:#56962c}.Q{fill-opacity:1}.R{fill:#9bca6b}.S{fill:#60a036}.T{color-interpolation-filters:sRGB}.U{fill:#d6c84a}.V{stroke-linecap:round}]]></style><defs><filter id="A" x="-.023" width="1.046" y="-.025" height="1.05" class="T"><feGaussianBlur stdDeviation="4.32"/></filter><linearGradient xlink:href="#C" id="B" x1="156" y1="262" x2="162" y2="255"/><linearGradient id="C" gradientUnits="userSpaceOnUse"><stop offset="0"/><stop offset="1" stop-opacity="0"/></linearGradient><linearGradient xlink:href="#C" id="D" x1="171" y1="251" x2="185" y2="256"/><linearGradient xlink:href="#C" id="E" x1="176" y1="266" x2="168" y2="270"/><clipPath id="F"><circle r="120" cy="576" cx="-240" fill="red" stroke="none" stroke-width="8" stroke-linejoin="miter" stroke-miterlimit="4" stroke-dasharray="none" stroke-opacity="1" class="B Q V"/></clipPath><clipPath id="G"><path d="M171 239v14h1v14h-1l-14 14h29c1.662 0 3-1.338 3-3v-36c0-1.662-1.338-3-3-3z" fill="#03a9f4" stroke="none" class="Q"/></clipPath><filter id="H" x="-.15" width="1.3" y="-.1" height="1.2" class="T"><feGaussianBlur stdDeviation="1.75"/></filter><clipPath id="I"><path d="M143 255l.134 5.945c.134.945.916 2.655 2.102 4.004 1.647 1.872 4.063 3.051 6.764 3.051h16l6 8c3 4 6.381.707 6-2l-1-19z" fill="#828b8f" class="Q"/></clipPath><filter id="J" x="-.109" width="1.219" y="-.133" height="1.266" class="T"><feGaussianBlur stdDeviation="1.78"/></filter><clipPath id="K"><rect transform="matrix(0 -1 -1 0 0 0)" width="40" height="40" x="-280" y="-188" rx="20" fill="#3d226d" stroke="none" class="Q"/></clipPath><clipPath id="L"><path d="M147 240c20 0 22 14 42 14v26c-20 0-22-14-42-14z" fill="#512da8" class="Q"/></clipPath><filter id="M" x="-.097" width="1.194" y="-.157" height="1.314" class="T"><feGaussianBlur stdDeviation="1.7"/></filter><path id="N" d="M410 220c-1.662 0-3 1.338-3 3v1c0-1.662 1.338-3 3-3h34c1.662 0 3 1.338 3 3v-1c0-1.662-1.338-3-3-3z"/><path id="O" d="M182 263l-1.2 3 1.2 3 1.2-3z"/><path id="P" d="M185 266l-3-1.2-3 1.2 3 1.2z"/><path id="Q" d="M79 84h8a1 1 0 0 1 1 1v8a1 1 0 0 1-1 1h-8a1 1 0 0 1-1-1v-8a1 1 0 0 1 1-1z"/><path id="R" d="M192-160s-32 0-32 32v48H32v304c0 32 32 32 32 32h384s32 0 32-32V-80H352v-48c0-32-32-32-32-32zm16 32h96c8.864 0 16 7.136 16 16v16c0 8.864-7.136 16-16 16h-96c-8.864 0-16-7.136-16-16v-16c0-8.864 7.136-16 16-16z"/><path id="S" d="M148.012 259.5l-.012.5a19.96 19.96 0 1 0 40 0l-.012-.5c-.265 10.846-9.076 19.5-19.988 19.5s-19.724-8.654-19.988-19.5z"/><path id="T" d="M168 240a19.96 19.96 0 0 0-20 20v.5c.264-10.846 9.088-19.5 20-19.5s19.736 8.654 20 19.5c.004-.167 0-.332 0-.5a19.96 19.96 0 0 0-20-20z"/><path id="U" d="M512.329 80.595c1.238.011 4.629 4.195 7.654 7.33.851 1.139-.329 2.306-.329 2.306l-6.337-3.459-2.798 3.788-2.469-3.706-1.481 5.765-4.362-2.635 1.152-1.482 6.831-7c.524-.533.925-.915 2.14-.906z"/><path id="V" d="M157.5 161c-1.385 0-2.5 1.115-2.5 2.5s1.115 2.5 2.5 2.5H179v-5z"/><path id="W" d="M153.898 180.303c-.979.979-.979 2.556 0 3.536s2.556.979 3.536 0l15.203-15.203-3.536-3.536z"/><path id="X" d="M173.697 149.898c-.979-.979-2.556-.979-3.536 0s-.979 2.556 0 3.536l15.203 15.203 3.536-3.536z"/><path id="Y" d="M414 155a1 1 0 1 0 0 2 1 1 0 1 0 0-2zm26 0a1 1 0 1 0 0 2 1 1 0 1 0 0-2zm-26 26a1 1 0 1 0 0 2 1 1 0 1 0 0-2zm26 0a1 1 0 1 0 0 2 1 1 0 1 0 0-2z"/><path id="Z" d="M498.021 149c-1.108 0-2 .892-2 2v36c0 1.108.892 2 2 2h28c1.108 0 2-.892 2-2v-36c0-1.108-.892-2-2-2H512z"/><path id="a" d="M327 221a5 5 0 1 0 0 10 5 5 0 1 0 0-10zm30 0a5 5 0 1 0 0 10 5 5 0 1 0 0-10zm-22 10a3 3 0 1 0 0 6 3 3 0 1 0 0-6zm14 0a3 3 0 1 0 0 6 3 3 0 1 0 0-6zm-14 14a3 3 0 1 0 0 6 3 3 0 1 0 0-6zm14 0a3 3 0 1 0 0 6 3 3 0 1 0 0-6zm-22 6a5 5 0 1 0 0 10 5 5 0 1 0 0-10zm30 0a5 5 0 1 0 0 10 5 5 0 1 0 0-10z"/></defs><g class="F"><path d="M491 221v26c20 0 22 14 42 14v-40z" class="B"/><path d="M491 220c20 0 22 14 42 14v26c-20 0-22-14-42-14z" fill="#1a237e"/><path d="M491 242v2l2 .053v-2l-2-.053zm4 .209v2l2 .271v-2l-2-.271zm4 .668v2l2 .547v-2l-2-.547zm4 1.24v2l2 .861v-2l-2-.861zm4 1.885V248h-.006l2.006 1.141v-2l-2-1.139zm4 2.367v2l2 1.262v-2l-2-1.262zm4 2.49v2l2 1.139v-2l-2-1.139zm4 2.162v2l2 .861v-2l-2-.861zm4 1.555v2l2 .547v-2l-2-.547zm4 .943v2l2 .271v-2l-2-.271zm4 .428v2l2 .053v-2c-.689 0-1.352-.021-2-.053z" opacity=".5" class="C"/><path d="M491 226v16c4.911 0 8.725-1.146 12 .127v-14c-3.275-1.273-7.089-2.127-12-2.127zm14 2.979v14c5.065 2.371 8.937 5.671 14 8.043v-14c-5.063-2.372-8.935-5.672-14-8.043zm16 8.904v14c3.272 1.272 7.092 2.117 12 2.117v-14c-4.908 0-8.728-.845-12-2.117z" class="E"/><path d="M147 241h42v26h-42z" clip-path="url(#L)" filter="url(#M)" transform="translate(344 -20)" class="B"/><path d="M491 220h42v26h-42z" fill="#3949ab"/><g class="C"><path d="M491 222h2v2h-2zm4 0h2v2h-2zm4 0h2v2h-2zm4 0h2v2h-2zm4 0h2v2h-2zm4 0h2v2h-2zm4 0h2v2h-2zm4 0h2v2h-2zm4 0h2v2h-2zm4 0h2v2h-2zm-36 20h2v2h-2zm4 0h2v2h-2zm4 0h2v2h-2zm4 0h2v2h-2zm4 0h2v2h-2zm4 0h2v2h-2zm4 0h2v2h-2zm4 0h2v2h-2zm4 0h2v2h-2zm4 0h2v2h-2zm4-20h2v2h-2zm0 20h2v2h-2z"/><path d="M491 220h42v1h-42z" class="B"/></g><path d="M491 225h12v16h-12zm14 0h14v16h-14zm16 0h12v16h-12z" class="E"/><rect rx="3" y="-188" x="-281" height="40" width="32" transform="matrix(0 -1 -1 0 259 -20)" class="B"/><path d="M410 220c-1.662 0-3 1.338-3 3v29h40v-29c0-1.662-1.338-3-3-3z" fill="#4a148c"/><use xlink:href="#N" class="B C"/><path d="M447 246v11c0 1.662-1.338 3-3 3h-34c-1.662 0-3-1.338-3-3v-1s16-10 40-10z" fill="#4a1d59"/><path d="M447 246v1c-24 0-40 10-40 10v-1s16-10 40-10z" class="B C"/><path d="M407 246v11c0 1.662 1.338 3 3 3h34c1.662 0 3-1.338 3-3v-1s-16-10-40-10z" fill="#1a1a1a"/><g class="C"><path d="M407 246v1c24 0 40 10 40 10v-1s-16-10-40-10z" class="B"/><g transform="matrix(-.8 0 0 .8 553.1 20.5)" class="H M"><path d="M172 255l-2 5 2 5 2-5z"/><path d="M177 260l-5-2-5 2 5 2z"/></g><g transform="matrix(-.666667 0 0 .666667 564.83333 64.166666)" class="H M"><use xlink:href="#O"/><use xlink:href="#P"/></g><g transform="matrix(-.666667 0 0 .666667 536.83333 64.166666)" class="H M"><use xlink:href="#O"/><use xlink:href="#P"/></g><g class="H M"><path d="M421.5 235.5l-.8-2 .8-2 .8 2z"/><path d="M423.5 233.5l-2 .8-2-.8 2-.8z"/></g></g><circle r="8" cy="233" cx="435" class="B"/><circle cx="435" cy="232" r="8" fill="#fffde7"/><g transform="matrix(-.666667 0 0 .666667 544.83333 64.166666)" class="C H M"><use xlink:href="#O"/><use xlink:href="#P"/></g><g transform="matrix(0 -1 -1 0 -80 -164)"><rect rx="3" y="-188" x="-281" height="40" width="40" class="B"/><rect width="40" height="40" x="-280" y="-188" rx="3" class="N"/></g><g class="C"><path d="M74 106h28v1H74z" class="E"/><use xlink:href="#N" x="-339" y="-144" class="E"/></g><use xlink:href="#Q" class="B"/><use xlink:href="#Q" x="10" y="16" class="B"/><path d="M74 86h28v4H74z" opacity=".3"/><use xlink:href="#Q" y="-1" class="C D"/><path d="M81 83h4v10h-4z" fill="#e80800" class="D"/><path d="M74 102h28v4H74z" opacity=".3"/><use xlink:href="#Q" x="10" y="15" class="C D"/><path d="M91 99h4v10h-4z" fill="#e80800" class="D"/><path d="M74 90h28v1H74z" class="C E"/><g class="H"><path d="M258.004 4.98c-.045-.001-.091.004-.137.004l-.35.014-.207.008c-1.589.089-2.688.56-2.937 1.199a1.98 1.98 0 0 0-.291.576L247.508 29H245a2 2 0 0 0-1.846 1.23l-5 12A2 2 0 0 0 240 45h36c1.249 0 2.145-1.111 1.982-2.271a2.03 2.03 0 0 0-.137-.498l-.109-.264-4.891-11.736A2 2 0 0 0 271 29h-2.506l-.225-.756-6.352-21.463c-.012-.039-.035-.073-.049-.111.002-.245-.157-.478-.418-.695-.219-.231-.491-.411-.801-.518-.848-.292-1.738-.466-2.646-.477z" class="B"/><path d="M245 28a2 2 0 0 0-1.846 1.23l-5 12A2 2 0 0 0 240 44h36a2 2 0 0 0 1.846-2.77l-5-12A2 2 0 0 0 271 28z" fill="#f80" class="D"/><path d="M245 28a2 2 0 0 0-1.846 1.23l-5 12a1.96 1.96 0 0 0-.076 1.275c.024-.092.038-.184.076-.275l5-12A2 2 0 0 1 245 29h26a2 2 0 0 1 1.846 1.23l5 12c.038.091.052.184.076.275a1.96 1.96 0 0 0-.076-1.275l-5-12A2 2 0 0 0 271 28z" class="B C"/><path d="M252.666 29L246 34l9 10h21c.961 0 1.7-.662 1.922-1.494-.024-.093-.038-.185-.076-.275l-5-12A2 2 0 0 0 271 29zm25.256 13.504a1.95 1.95 0 0 0 .065-.484c-.004.165-.023.328-.065.484zm.041-.848l.022.16-.022-.16z" class="E"/><path d="M258.004 3.98a7.11 7.11 0 0 0-2.75.512 2 2 0 0 0-1.172 1.289L252.242 12c3.175 12.011 8.767 2.222 11.516 0l-1.84-6.219a2 2 0 0 0-1.268-1.324c-.848-.292-1.738-.466-2.646-.477zM249.875 20l-2.219 7.5c1.054 9.18 11.899 5.074 20.613-.255L266.125 20c-5.5 2.188-8.03-3.237-16.25 0z" fill="#f80" class="D"/></g><g class="C"><path d="M261.872 5.664c0 .633-1.766 1.679-3.58 1.679-2.123 0-3.977-1.002-3.977-1.856s1.412-1.503 3.536-1.503 4.022.825 4.022 1.679z" class="E"/><path d="M252.242 12l-2.367 8c6.125 2.75 10.75 2.188 16.25 0l-2.367-8C261 14 255 14 252.242 12zm-2.367 8l-3.793 12.814a2 2 0 0 0 .773 2.207c3.082 2.149 7.086 3.015 11.07 2.977s7.982-.985 11.121-2.912a2 2 0 0 0 .871-2.271l-1.648-5.57c-8.706 5.273-18.459 1.519-20.613.256z" class="D H"/></g><path d="M261.918 5.781S261.392 6.692 260 7a5.67 5.67 0 0 1-.672.105 7.22 7.22 0 0 1-1.213.105 7.56 7.56 0 0 1-.633-.031l-7.926 29.314c2.558 1.078 5.467 1.532 8.369 1.504 3.985-.038 7.982-.985 11.121-2.912a2 2 0 0 0 .871-2.271l-8-27.033z" class="E H"/><path d="M257.85 3.984c-2.123 0-3.535.648-3.535 1.502 0 .159.082.324.201.486.451-.585 1.667-.988 3.334-.988 1.673 0 3.192.513 3.768 1.148.156-.166.254-.328.254-.469 0-.854-1.898-1.68-4.021-1.68z" class="B C"/><circle r="22" cy="25" cx="342" class="B"/><circle cx="342" cy="24" r="22" fill="#1ed760" class="D"/><path d="M342 2c-12.15 0-22 9.85-22 22l.022.586C320.247 12.606 330.018 3.01 342 3c11.917.007 21.661 9.502 21.979 21.414L364 24c0-12.15-9.85-22-22-22z" class="B C"/><path d="M349.03 33.772c-4.625-2.461-10.048-3.06-16.497-1.822-1.801.346-1.929.354-2.313.156-.941-.487-.924-1.903.027-2.323.445-.196 2.403-.584 4.078-.807 5.798-.773 11.059-.024 15.504 2.207 1.888.948 2.231 1.293 2.148 2.162-.065.681-.448 1.046-1.14 1.088-.473.029-.597-.016-1.808-.66zm2.188-5.753c-.866-.445-1.96-.958-2.43-1.14-3.169-1.224-6.782-1.872-10.437-1.872-2.586 0-4.584.248-7.007.869-.947.243-1.176.271-1.492.186-.97-.261-1.508-1.324-1.13-2.23.222-.531.72-.877 1.602-1.115a36.46 36.46 0 0 1 4.097-.829c1.697-.239 6.222-.24 7.978 0 3.866.527 7.047 1.477 9.984 2.982 1.927.988 2.293 1.353 2.293 2.285-.001.902-.724 1.64-1.634 1.666-.137.004-.958-.357-1.824-.803zm2.547-6.626c-2.215-1.129-4.314-1.839-7.084-2.393-5.328-1.066-11.655-1.005-15.934.156-.622.168-1.201.261-1.645.261-.608.001-.73-.031-1.091-.285-.601-.424-.875-.998-.83-1.742.068-1.131.641-1.625 2.411-2.079 6.52-1.674 15.348-1.33 21.979.856 2.422.798 5.289 2.184 5.738 2.773.748.981.424 2.479-.648 2.998-.788.381-1.252.294-2.896-.545z" fill="#191515"/></g><g transform="matrix(.3125 0 0 .3125 220 118.25)"><use xlink:href="#R" filter="url(#A)" class="E"/><use xlink:href="#R" filter="url(#A)" class="B"/><path d="M192-162s-32 0-32 32v48H32v304c0 32 32 32 32 32h384s32 0 32-32V-82H352v-48c0-32-32-32-32-32zm16 32h96c8.864 0 16 7.136 16 16v16c0 8.864-7.136 16-16 16h-96c-8.864 0-16-7.136-16-16v-16c0-8.864 7.136-16 16-16z" class="B"/><path d="M192-164s-32 0-32 32v48H32v304c0 32 32 32 32 32h384s32 0 32-32V-84H352v-48c0-32-32-32-32-32zm16 32h96c8.864 0 16 7.136 16 16v16c0 8.864-7.136 16-16 16h-96c-8.864 0-16-7.136-16-16v-16c0-8.864 7.136-16 16-16z" fill="#15a6f0"/><g class="C"><circle r="120" cy="84" cx="256" class="H"/><path d="M192-164s-32 0-32 32v2c0-32 32-32 32-32h128s32 0 32 32v-2c0-32-32-32-32-32zm0 64v2c0 8.864 7.136 16 16 16h96c8.864 0 16-7.136 16-16v-2c0 8.864-7.136 16-16 16h-96c-8.864 0-16-7.136-16-16zM32-84v2h128v-2zm320 0v2h128v-2z" opacity=".25"/></g><g fill="#15a6f0"><circle cx="212" cy="40" r="12"/><circle r="12" cy="84" cx="212"/><circle cx="212" cy="128" r="12"/><g transform="matrix(-1 0 0 -1 -760 32)"><circle r="12" cy="-8" cx="-1060"/><circle cx="-1016" cy="-8" r="12"/><circle cx="-1060" cy="-52" r="12"/><circle r="12" cy="-52" cx="-1016"/><circle r="12" cy="-96" cx="-1060"/><circle cx="-1016" cy="-96" r="12"/></g></g></g><g class="F"><rect rx="3" y="-188" x="-281" height="40" width="40" transform="matrix(0 -1 -1 0 5 -236)" class="B"/><path d="M153 12h4v4h-4z" class="R"/><path d="M157 24h4v4h-4z" class="I"/><path d="M173 24h-4v4h4z" class="J"/><path d="M169 24h-4v4h4z" class="G"/><path d="M173 20h-4v4h4z" class="K"/><path d="M165 20h4v4h-4z" class="G"/><path d="M169 16h-4v4h4z" class="I"/><path d="M189 8h4v4h-4z" class="R"/><path d="M153 7c0-3 3-3 3-3h1v4h-4z" class="L"/><path d="M169 32h4v4h-4z" class="J"/><path d="M161 32h4v4h-4z" class="G"/><path d="M177 32h-4v-4h4z" class="J"/><path d="M161 24h4v4h-4z" class="G"/><path d="M161 20h4v4h-4z" class="I"/><path d="M177 20h-4v4h4z" class="O"/><path d="M173 16h4v4h-4z" class="K"/><path d="M165 12h-4v4h4z" class="S"/><path d="M157 36h-4v-4h4z" class="J"/><path d="M177 36h-4v-4h4zm-16 0h-4v-4h4z" class="G"/><path d="M181 24h-4v4h4z" class="K"/><path d="M157 8h4v4h-4z" class="R"/><path d="M169 12h4v4h-4z" class="L"/><path d="M173 12h4v4h-4z" class="P"/><path d="M177 12h4v4h-4z" class="S"/><path d="M181 16h-4v4h4z" class="L"/><path d="M161 20h-4v4h4z" class="G"/><path d="M169 12h-4v4h4z" class="P"/><path d="M157 8h-4v4h4z" class="S"/><path d="M177 36h4v-4h-4z" class="I"/><path d="M185 40h-4v4h4zm-20 0h4v4h-4z" class="G"/><path d="M169 40h4v4h-4zm-8 4h4v-4h-4z" class="K"/><path d="M177 44h-4v-4h4z" class="G"/><path d="M161 36h4v4h-4z" class="I"/><path d="M165 36h4v4h-4z" class="O"/><path d="M173 36h4v4h-4z" class="G"/><path d="M169 36h4v4h-4zm12 0h4v4h-4z" class="I"/><path d="M161 40h-4v-4h4z" class="O"/><path d="M157 44h4v-4h-4zm28-20h-4v4h4z" class="J"/><path d="M185 20h-4v4h4z" class="K"/><path d="M181 4h4v4h-4z" class="R"/><path d="M181 36h4v-4h-4z" class="G"/><path d="M181 12h4v4h-4z" class="L"/><path d="M189 36h-4v-4h4z" class="I"/><path d="M181 4h-4v4h4z" class="L"/><path d="M173 4h4v4h-4z" class="S"/><path d="M157 4h4v4h-4z" class="L"/><path d="M161 4h4v4h-4zm8 0h4v4h-4z" class="P"/><path d="M165 4h4v4h-4z" class="L"/><path d="M157 20h-4v-4h4zm-4 20h4v-4h-4z" class="J"/><path d="M169 32h-4v4h4z" class="G"/><path d="M153 24h4v4h-4z" class="K"/><path d="M153 20h4v4h-4z" class="I"/><path d="M165 16h-4v4h4z" class="J"/><path d="M177 8h4v4h-4z" class="P"/><path d="M181 8h4v4h-4z" class="S"/><path d="M173 8h-4v4h4z" class="P"/><g class="L"><path d="M173 8h4v4h-4zm16-4h1s3 0 3 3v1h-4z"/><path d="M185 8h4v4h-4z"/><path d="M185 4h4v4h-4z"/></g><g class="P"><path d="M165 8h-4v4h4zm20 4h4v4h-4z"/><path d="M189 16h4v4h-4z"/></g><path d="M165 8h4v4h-4z" class="R"/><path d="M165 28h-4v4h4z" class="J"/><path d="M157 32h4v-4h-4z" class="G"/><path d="M165 32h4v-4h-4z" class="I"/><path d="M169 32h4v-4h-4z" class="G"/><path d="M189 16h-4v4h4z" class="J"/><path d="M177 24h4v-4h-4z" class="G"/><path d="M185 24h4v-4h-4z" class="I"/><path d="M189 24h4v-4h-4z" class="G"/><path d="M153 41c0 3 3 3 3 3h1v-4h-4z" class="I"/><path d="M157 28h-4v4h4zm20-8h-4v4h4zm-16-4h-4v4h4zm24 4h-4v-4h4z" class="O"/><path d="M193 12h-4v4h4zm-16 28h4v4h-4z" class="J"/><path d="M181 28h-4v4h4z" class="G"/><path d="M189 28h-4v4h4z" class="J"/><path d="M193 28h-4v4h4z" class="K"/><path d="M161 16h-4v-4h4z" class="G"/><path d="M181 28h4v4h-4z" class="O"/><path d="M189 32h4v4h-4z" class="I"/><path d="M189 24h-4v4h4z" class="K"/><path d="M173 16h-4v4h4z" class="J"/><path d="M189 36h4v4h-4z" class="G"/><path d="M189 40h-4v4h4z" class="J"/><path d="M189 40h4v1c0 3-3 3-3 3h-1z" class="O"/><path d="M189 40h-4v-4h4zm-16-16h4v4h-4z" class="G"/><path d="M189 28h4v-4h-4z" class="I"/><path d="M177 40h4v-4h-4z" class="G"/><path d="M156 4c-1.662 0-3 1.338-3 3v1c0-1.662 1.338-3 3-3h34c1.662 0 3 1.338 3 3V7c0-1.662-1.338-3-3-3z" class="B C"/></g><g transform="translate(-80.03 -236.01)" class="F"><path d="M168 240c-7.016 0-13.151 3.594-16.719 9.031-.126 8.147 5.056 10.986 8.813 15.25-.691-1.275-1.094-2.723-1.094-4.281 0-4.986 4.045-6.446 9-7l17.875-2c-3.281-6.539-10.033-11-17.875-11z" fill="#608ab5"/><path d="M150.7 270.058c3.508 6.076 9.688 9.592 16.181 9.963 6.923-3.816 10.593-8.668 8.801-15.257-.759 1.236-1.811 2.309-3.161 3.088-2.144 1.238-4.129-.063-6.34-.643-2.241-.588-4.7-.477-5.955-2.651l-8.937-15.48c-4.023 6.112-4.51 14.189-.589 20.98z" fill="#85b4df"/><path d="M185.376 270.003c3.508-6.076 3.463-13.186.538-18.994l-17.613.007c1.45.039 2.905.414 4.255 1.193 2.308 1.332 2.091 3.965 2.601 6.371.445 2.096 1.854 3.913.693 5.923l-8.937 15.48c7.304.428 14.543-3.189 18.464-9.98z" fill="#cddff0"/><path d="M160.206 264.5L168 260l-16.744-11.018z" fill="url(#B)" class="B"/><path d="M168 251v9l17.914-8.991z" fill="url(#D)" class="E"/><path d="M168 240c-10.901 0-19.688 8.637-19.969 19.469A19.95 19.95 0 0 1 168 240.5a19.95 19.95 0 0 1 19.969 18.969C187.688 248.637 178.901 240 168 240z" class="C E"/><path d="M175.794 264.5L168 260l-1.17 20.009z" fill="url(#E)" class="B"/><g transform="matrix(0 -1 -1 0 0 0)"><rect rx="9" y="-177" x="-269" height="18" width="18" class="C"/><rect width="15" height="15" x="-267.5" y="-175.5" rx="7.5" fill="#779fd3"/></g><use xlink:href="#S" class="B"/></g><g transform="translate(343.978 -236)" class="F"><circle r="20" cy="260" cx="168.047" fill="#1a237e" class="D"/><path clip-path="url(#F)" transform="matrix(.166667 0 0 .166667 208 164)" d="M-200 504c-24.301 0-44 19.699-44 44l.062 1.25L-276 592l.512.205a32 32 0 0 0-11.549 3.592l-89.084-38.18L-384 596v-40l-7.879 38.383 89.08 38.178C-298.956 646.4-286.363 655.984-272 656c17.673 0 32-14.327 32-32a32 32 0 0 0-.145-2.891l38.871-29.154A44 44 0 0 0-200 592c24.301 0 44-19.699 44-44s-19.699-44-44-44zm0 16c15.464 0 28 12.536 28 28s-12.536 28-28 28-28-12.536-28-28 12.536-28 28-28zm0 8c-11.046 0-20 8.954-20 20s8.954 20 20 20 20-8.954 20-20-8.954-20-20-20zm-72 72c13.255 0 24 10.745 24 24s-10.745 24-24 24a24 24 0 0 1-20.053-10.834l12.174 5.217.01-.021A20 20 0 0 0-272 644c11.046 0 20-8.954 20-20a20 20 0 0 0-12.131-18.361l.01-.021-12.178-5.219A24 24 0 0 1-272 600z" fill="#e8eaf6" class="D"/><use xlink:href="#T" class="C E"/><use xlink:href="#S" y="1" class="B"/></g><g class="F"><path d="M429.497 10l-14 14" fill="none" stroke="#cbbb2e" stroke-width="8"/><path d="M421.497 24h-12v17h12z" fill="#cbbb2e" class="D"/><g transform="matrix(-1 0 0 1 259.497 -236)"><rect y="253" x="-164" height="16" width="16" ry="8" class="B"/><rect ry="2" y="274" x="-164" height="4" width="16" class="D U"/></g><path d="M421.497 38c1.108 0 2 .892 2 2 0 .174-.029.339-.07.5a1.99 1.99 0 0 0-1.93-1.5h-12a1.99 1.99 0 0 0-1.93 1.5c-.041-.161-.07-.326-.07-.5 0-1.108.892-2 2-2h12z" class="C E"/><path d="M423.497 40c2 0 2 2 2 2v2h-20v-2c0-2 2-2 2-2z" class="D N"/><g transform="matrix(-1 0 0 1 259.497 -236)"><rect ry="8" width="16" height="16" x="-164" y="252" class="D U"/><rect y="254" x="-162" height="12" width="12" ry="6" class="D N"/></g><path d="M429.497 10l10 10" fill="none" stroke="#cbbb2e" stroke-width="6"/><g transform="matrix(-1 0 0 1 259.497 -236)"><rect ry="6" width="12" height="12" x="-176" y="241" class="B"/><rect y="240" x="-176" height="12" width="12" ry="6" class="D U"/></g><path d="M441.497 28l-4-2v-4l4-4h4l2 4" fill="none" stroke="#3f3f3f" stroke-width="2" stroke-linejoin="round" class="V"/><g transform="matrix(-1 0 0 1 259.497 -236)"><rect ry="4" width="8" height="8" x="-174" y="242" class="D N"/><g class="C"><rect ry="4" width="8" height="8" x="-160" y="256" class="E"/><rect y="244" x="-172" height="4" width="4" ry="2" class="E"/></g></g><path d="M415.497 16c4.432 0 8 3.568 8 8 0 .169-.015.334-.025.5-.258-4.196-3.711-7.5-7.975-7.5s-7.717 3.304-7.975 7.5c-.01-.166-.025-.331-.025-.5 0-4.432 3.568-8 8-8z" class="C E"/><path d="M429.497 4c3.324 0 6 2.676 6 6 0 .169-.012.335-.025.5-.253-3.088-2.819-5.5-5.975-5.5s-5.722 2.412-5.975 5.5l-.025-.5c0-3.324 2.676-6 6-6z" class="B C"/><path d="M423.497 40c2 0 2 2 2 2v1s0-2-2-2h-16s-2 0-2 2v-1c0-2 2-2 2-2z" class="C E"/><circle r="22" cy="97" cx="173" class="B"/><circle cx="173" cy="96" r="22" fill="#f9ce1d" class="D"/><path d="M173 74c-12.15 0-22 9.85-22 22l.022.586C151.247 84.606 161.018 75.01 173 75c11.917.007 21.661 9.502 21.979 21.414L195 96c0-12.15-9.85-22-22-22z" class="B C"/><circle r="17" cy="261" cx="-168" transform="matrix(-1 0 0 1 5 -164)" class="B"/><circle cx="173" cy="96" r="17" fill="#e6e6e6" class="D"/><path d="M173 84l-12 12h3v9h18v-9h3l-4-4v-4h-3v1z" fill="#ccc" class="D"/><g class="H"><path d="M512 76c-1.202 0-2.371.449-3.292 1.4L492.33 94.283a4.98 4.98 0 0 0-1.399 3.377v.082c0 3.618 9.662.106 10.535 4.529.472 2.394-5.267 1.297-5.267 3.706 0 2.826 8.124.882 10.452 3.212.956 2.329-3.11 1.953-2.387 4.118 1.364 1.408 4.431.61 5.02 2.882.673 2.596 5.081 2.148 7.654.247 1.364-1.408-2.104-2.051-.741-3.459s8.099-1.123 8.148-4.2c-.644-1.933-3.171-2.245-3.21-4.529-.136-1.935 2.07-1.369 9.053-3.294 2.792-1.309 2.891-2.006 2.881-3.212v-.082c-.016-1.216-.579-2.445-1.481-3.377L515.292 77.4c-.921-.951-2.09-1.4-3.292-1.4zm19.094 28.906c-.333-.01-.669.016-.905.082-.446.129-2.561.204-2.387 1.812 1.916.804 4.837 1.443 5.185-.164.261-1.206-.894-1.693-1.893-1.729zm-32.674 5.353c-.186.021-.312.095-.494.164-1.453.553-2.427 1.716-1.07 2.224s2.267-.029 3.457-.659 1.156-.745 1.07-.988c-.165.033-1.247-.641-2.387-.741a2.99 2.99 0 0 0-.576 0z" class="B"/><path d="M512.312 79.395c1.175.01 4.394 3.982 7.266 6.957.808 1.081-.312 2.189-.312 2.189l-6.016-3.283-2.656 3.596-2.344-3.518-1.406 5.472-4.141-2.502 1.094-1.407 6.484-6.645c.497-.506.878-.869 2.031-.86z" class="B"/><path d="M512 75c-1.202 0-2.371.449-3.292 1.4L492.33 93.283a4.98 4.98 0 0 0-1.399 3.377v.082c0 3.618 9.662.106 10.535 4.529.472 2.394-5.267 1.297-5.267 3.706 0 2.826 8.124.882 10.452 3.212.956 2.329-3.11 1.953-2.387 4.118 1.364 1.408 4.431.61 5.02 2.882.673 2.596 5.081 2.148 7.654.247 1.364-1.408-2.104-2.051-.741-3.459s8.099-1.123 8.148-4.2c-.644-1.933-3.171-2.245-3.21-4.529-.136-1.935 2.07-1.369 9.053-3.294 2.792-1.309 2.891-2.006 2.881-3.212v-.082c-.016-1.216-.579-2.445-1.481-3.377L515.292 76.4c-.921-.951-2.09-1.4-3.292-1.4zm19.094 28.906c-.333-.01-.669.016-.905.082-.446.129-2.561.204-2.387 1.812 1.916.804 4.837 1.443 5.185-.164.261-1.206-.894-1.693-1.893-1.729zm-32.674 5.353c-.186.021-.312.095-.494.164-1.453.553-2.427 1.716-1.07 2.224s2.267-.029 3.457-.659 1.156-.745 1.07-.988c-.165.033-1.247-.641-2.387-.741a2.99 2.99 0 0 0-.576 0z" fill="#666"/><use xlink:href="#U" class="B"/><g class="C"><use xlink:href="#U" y="-1"/><path d="M512 75c-1.202 0-2.36.456-3.281 1.406l-16.375 16.875c-.902.932-1.388 2.159-1.406 3.375v.094c0 .152.03.279.063.406.125-1.046.566-2.072 1.344-2.875l16.375-16.875C509.64 76.456 510.798 76 512 76s2.36.455 3.281 1.406l16.313 16.875c.848.875 1.361 2.014 1.438 3.156.032-.22.034-.432.031-.687v-.094c-.016-1.216-.566-2.443-1.469-3.375l-16.312-16.875C514.36 75.455 513.202 75 512 75zm-10.625 27.031c-.782 1.427-5.187.83-5.187 2.938a1.33 1.33 0 0 0 .094.5c.759-1.756 5.623-.98 5.188-3.187-.017-.087-.07-.169-.094-.25zm19.781 1.688c-.039.152-.045.331-.031.531.036 2.131 2.276 2.541 3.094 4.156a1.83 1.83 0 0 0 .125-.625c-.597-1.793-2.839-2.19-3.187-4.062zm9.438.188c-.155.014-.288.061-.406.094-.446.129-2.549.205-2.375 1.813.059.025.127.038.188.063.528-.734 1.848-.777 2.188-.875a3.21 3.21 0 0 1 .906-.094c.739.027 1.571.308 1.844.938.028-.067.046-.142.063-.219.261-1.206-.908-1.682-1.906-1.719-.166-.005-.345-.014-.5 0zm-32.187 5.344c-.186.021-.287.118-.469.188-1.271.484-2.203 1.43-1.5 2 .29-.382.844-.751 1.5-1 .182-.069.283-.166.469-.187s.404-.016.594 0c.653.057 1.265.307 1.719.5.724-.417.729-.543.656-.75-.165.033-1.235-.65-2.375-.75-.19-.016-.408-.021-.594 0zm8.281.063c-.541 1.153-3.014 1.275-2.437 3l.031.031c.543-1.141 3.024-1.244 2.406-3.031zm9.375 3.813c-.637.866.53 1.465 1 2.156.639-.869-.533-1.462-1-2.156z" class="B"/></g></g><path d="M412 77c-1.662 0-3 1.338-3 3v30c0 1.662 1.338 3 3 3h27l6 6V80c0-1.662-1.338-3-3-3z" class="B"/><rect width="36" height="36" x="409" y="76" rx="3" fill="#8c9eff" class="D"/><g class="H"><path d="M436 112l-1-4h6v4z" class="B"/><path d="M445 118l-10-10h10z" fill="#8c9eff" class="D"/></g><g class="C"><path d="M423.823 85.249l.206.247c-3.701 1.049-5.386 2.673-5.386 2.673s.452-.247 1.213-.576c2.2-.966 3.948-1.213 4.667-1.295.123-.021.226-.041.349-.041 1.254-.164 2.673-.205 4.153-.041a17.09 17.09 0 0 1 6.188 1.953s-1.624-1.542-5.119-2.59l.288-.329s2.817-.062 5.757 2.138c0 0 2.961 5.325 2.961 11.884 0-.021-1.727 2.94-6.271 3.084l-1.357-1.645c2.693-.761 3.722-2.426 3.722-2.426-.843.555-1.645.946-2.364 1.213-1.028.432-2.015.699-2.981.884-1.974.37-3.783.267-5.325-.021-1.172-.226-2.18-.534-3.023-.884-.473-.185-.987-.411-1.501-.699-.062-.041-.123-.062-.185-.103-.041-.021-.062-.041-.082-.041-.37-.206-.575-.35-.575-.35s.987 1.624 3.598 2.406c-.617.781-1.378 1.686-1.378 1.686-4.544-.144-6.271-3.104-6.271-3.104 0-6.559 2.961-11.884 2.961-11.884 2.961-2.2 5.757-2.138 5.757-2.138zm-.555 7.587c-1.172 0-2.097 1.007-2.097 2.262s.946 2.262 2.097 2.262c1.172 0 2.097-1.007 2.097-2.262.02-1.254-.925-2.262-2.097-2.262zm7.504 0c-1.172 0-2.097 1.007-2.097 2.262s.946 2.262 2.097 2.262c1.172 0 2.097-1.007 2.097-2.262s-.946-2.262-2.097-2.262z"/><path d="M412 76s-3 0-3 3v1c0-3 3-3 3-3h30s3 0 3 3v-1c0-3-3-3-3-3z" class="B"/></g><circle r="14" cy="175" cx="179" class="B"/><use xlink:href="#V" class="B"/><use xlink:href="#W" class="B"/><use xlink:href="#X" class="B"/><g fill="#f5792a"><circle r="14" cy="174" cx="179" class="D"/><use xlink:href="#V" y="-1" class="D"/><use xlink:href="#W" y="-1" class="D"/><use xlink:href="#X" y="-1" class="D"/></g><circle r="9" cy="174" cx="179" class="C D"/><circle cx="179" cy="174" r="5" fill="#0d528a" class="D"/><path d="M171.93 148.164a2.49 2.49 0 0 0-2.449 3.002c.095-.463.321-.907.682-1.268a2.49 2.49 0 0 1 3.535 0L188.9 165.1l-.008.008a14 14 0 0 1 4.086 9.484L193 174a14 14 0 0 0-4.107-9.893l.008-.008-15.203-15.201a2.49 2.49 0 0 0-1.768-.734zM157.5 160c-1.385 0-2.5 1.115-2.5 2.5a2.53 2.53 0 0 0 .051.5 2.49 2.49 0 0 1 2.449-2h20.229l-1-1zm10.5 5l-14.102 14.303a2.49 2.49 0 0 0-.682 2.268c.095-.463.321-.907.682-1.268L169 165c-.425 0-.602 0-1 0z" class="C E"/><path d="M169.48 150.166a2.49 2.49 0 0 0 .682 2.268l6.566 6.566h1l-7.566-7.566c-.361-.361-.587-.804-.682-1.268zM155.051 162a2.53 2.53 0 0 0-.051.5c0 1.385 1.115 2.5 2.5 2.5l11.6.101 1-1-12.6-.101a2.49 2.49 0 0 1-2.449-2zm37.928 11.592c-.317 7.492-6.48 13.403-13.979 13.408a14 14 0 0 1-13.937-12.789l-7.629 7.627c-.979.979-2.556.979-3.535 0-.361-.361-.587-.804-.682-1.268a2.49 2.49 0 0 0 .682 2.268c.979.979 2.556.979 3.535 0l7.629-7.627c.628 7.232 6.679 12.784 13.938 12.789 7.732 0 14-6.268 14-14l-.022-.408z" class="B"/><rect transform="matrix(0 -1 -1 0 -80 -92)" width="42" height="42" x="-282" y="-189" rx="3" class="B"/><path d="M92 161v14h17v-14z" fill="#03a9f4"/><path d="M91 175l-14 14h29c1.662 0 3-1.338 3-3v-11z" fill="#3f51b5"/><path d="M91 147v14h18v-11c0-1.662-1.338-3-3-3z" fill="#2196f3"/><path clip-path="url(#G)" d="M147 243c0-1.662 1.338-3 3-3h25v28l-14 14h-11c-1.662 0-3-1.338-3-3z" filter="url(#H)" transform="translate(-80 -92)" class="B"/><path d="M67 150c0-1.662 1.338-3 3-3h25v28l-14 14H70c-1.662 0-3-1.338-3-3z" fill="#e6e6e6"/><path d="M70 147c-1.662 0-3 1.338-3 3v1c0-1.662 1.338-3 3-3h36c1.662 0 3 1.338 3 3v-1c0-1.662-1.338-3-3-3z" class="B C"/><path d="M81 189v-11s0-3 3-3h11z" fill="#b3b3b3" class="H"/><g fill="#3f51b5"><path d="M71 151v2h3a1 1 0 1 1 0 2h-3v2h3a1 1 0 1 1 0 2h-3v2h3c1.662 0 3-1.338 3-3a2.98 2.98 0 0 0-.775-2 2.98 2.98 0 0 0 .775-2c0-1.662-1.338-3-3-3z" class="D"/><path d="M79 151l-1 2h2v8h2v-10z" class="D H"/></g><path d="M427 149c-4.513 0-8.653 1.498-11.992 4H413c-1.108 0-2 .892-2 2v2.008c-2.502 3.339-4 7.48-4 11.992s1.498 8.653 4 11.992V183c0 1.108.892 2 2 2h2.008c3.339 2.502 7.48 4 11.992 4s8.653-1.498 11.992-4H441c1.108 0 2-.892 2-2v-2.008c2.502-3.339 4-7.48 4-11.992s-1.498-8.653-4-11.992V155c0-1.108-.892-2-2-2h-2.008c-3.339-2.502-7.48-4-11.992-4z" class="B"/><path d="M427 148c-4.513 0-8.653 1.498-11.992 4H413c-1.108 0-2 .892-2 2v2.008c-2.502 3.339-4 7.48-4 11.992s1.498 8.653 4 11.992V182c0 1.108.892 2 2 2h2.008c3.339 2.502 7.48 4 11.992 4s8.653-1.498 11.992-4H441c1.108 0 2-.892 2-2v-2.008c2.502-3.339 4-7.48 4-11.992s-1.498-8.653-4-11.992V154c0-1.108-.892-2-2-2h-2.008c-3.339-2.502-7.48-4-11.992-4z" fill="#5e5e5e"/><use xlink:href="#Y" class="B"/><use xlink:href="#Y" y="-1" class="C D"/><circle r="15" cy="-160" cx="-261" transform="matrix(0 -1 -1 0 267 -92)" class="B"/><g transform="matrix(0 -1 -1 0 259 -92)"><circle cx="-260" cy="-168" r="15" class="D N"/><circle r="13" cy="-168" cx="-260" fill="#fec006" class="D"/></g><circle r="6" cy="-160" cx="-261" transform="matrix(0 -1 -1 0 267 -92)" class="B"/><g transform="matrix(0 -1 -1 0 259 -92)"><circle cx="-260" cy="-168" r="6" class="D N"/><circle r="4" cy="-168" cx="-258" class="B C"/></g><path d="M427 148c-4.513 0-8.653 1.498-11.992 4H413c-1.108 0-2 .892-2 2v1c0-1.108.892-2 2-2h2.008c3.339-2.502 7.48-4 11.992-4s8.653 1.498 11.992 4H441c1.108 0 2 .892 2 2v-1c0-1.108-.892-2-2-2h-2.008c-3.339-2.502-7.48-4-11.992-4zm-16 8.008c-2.502 3.339-4 7.48-4 11.992 0 .168.015.333.019.5a19.91 19.91 0 0 1 3.98-11.492v-1zm32 0v1a19.91 19.91 0 0 1 3.98 11.492c.004-.167.019-.332.019-.5 0-4.513-1.498-8.653-4-11.992zM427 152c-8.284 0-15 6.716-15 15l.019.414c.315-8.047 6.927-14.41 14.981-14.414a15 15 0 0 1 14.98 14.586A15 15 0 0 0 442 167c0-8.284-6.716-15-15-15z" class="C E"/><use xlink:href="#Z" class="B"/><use xlink:href="#Z" y="-1" fill="#863b29" class="D"/><path d="M498.021 148c-1.108 0-2 .892-2 2v36c0 1.108.892 2 2 2H502v-40zM520 148c-1 0-1 1-1 1v16.5l2.5-1.5 2.5 1.5V149c0-1-1-1-1-1z" class="B"/><path d="M519 148v16.5l2.5-1.5 2.5 1.5V148z" fill="#e6b17d"/><path d="M498.021 148c-1.108 0-2 .892-2 2v1c0-1.108.892-2 2-2h28c1.108 0 2 .892 2 2v-1c0-1.108-.892-2-2-2H512z" class="B C"/><path d="M78 227c-4.986 0-8.738 4.021-9 9l-1 19c-.631 3.715 2.972 6.061 6 2l5.357-8.035c.213.015.425.035.643.035h16l6 8c3 4 6.381.707 6-2l-1-19a8.98 8.98 0 0 0-9-9z" class="B"/><path d="M71 235l.134 5.945c.134.945.916 2.655 2.102 4.004C74.883 246.821 77.299 248 80 248h16l6 8c3 4 6.381.707 6-2l-1-19z" fill="#388e3c"/><path d="M150 246h20a8.98 8.98 0 0 1 9 9 8.97 8.97 0 0 1-2.236 5.95c-1.647 1.872-4.063 3.05-6.764 3.05h-16l-8 12c-3.028 4.061-6.631 1.715-6-2l1-19c.262-4.979 4.014-9 9-9z" clip-path="url(#I)" transform="translate(-72 -20)" filter="url(#J)" class="B"/><path d="M78 226h20a8.98 8.98 0 0 1 9 9 8.97 8.97 0 0 1-2.236 5.95c-1.647 1.872-4.063 3.05-6.764 3.05H82l-8 12c-3.028 4.061-6.631 1.715-6-2l1-19c.262-4.979 4.014-9 9-9z" fill="#4caf50"/><path d="M78 226c-4.986 0-8.738 4.021-9 9l-1 19a4.77 4.77 0 0 0-.037 1.367c.012-.122.016-.242.037-.367l1-19c.262-4.979 4.014-9 9-9h20c4.826 0 8.73 3.763 8.977 8.525.01-.174.023-.348.023-.525a8.98 8.98 0 0 0-9-9H78z" class="C E"/><g class="B"><path d="M77 232h3v9h-3z"/><path d="M83 235v3h-9v-3z"/><circle cx="94.5" cy="236.5" r="1.5"/><circle r="1.5" cy="236.5" cx="100.5"/><g transform="matrix(0 1 -1 0 -80 -19)"><circle r="1.5" cy="-177.5" cx="252.5"/><circle cx="258.5" cy="-177.5" r="1.5"/></g></g><g fill="#e8f5e9"><path d="M77 231h3v9h-3z"/><path d="M83 234v3h-9v-3z"/><circle r="1.5" cy="235.5" cx="94.5"/><circle cx="100.5" cy="235.5" r="1.5"/><g transform="matrix(0 1 -1 0 -80 -20)"><circle cx="252.5" cy="-177.5" r="1.5"/><circle r="1.5" cy="-177.5" cx="258.5"/></g></g></g><g transform="translate(5 -20)" class="F"><rect transform="matrix(0 -1 -1 0 0 0)" width="40" height="40" x="-280" y="-186" rx="20" fill="#ff9800"/><use xlink:href="#T" x="-2" class="C E"/><g transform="matrix(0 -1 -1 0 0 0)"><rect rx="20" y="-190" x="-281" height="40" width="40" class="B"/><rect rx="20" y="-190" x="-280" height="40" width="40" fill="#4a148c"/></g><use xlink:href="#T" x="2" class="B C"/><path d="M170 280a19.96 19.96 0 0 1-20-20v-.5c.264 10.846 9.088 19.5 20 19.5s19.736-8.654 20-19.5c.004.167 0 .332 0 .5a19.96 19.96 0 0 1-20 20z" class="E"/><path d="M148 253v2h40v-2zm0 4v2h40v-2zm0 4v2h40v-2zm0 4v2h40v-2z" clip-path="url(#K)" transform="translate(2)" class="C M"/></g><g class="F"><rect rx="20" y="-180" x="-280" height="40" width="40" transform="matrix(0 -1 -1 0 98 -19)" class="B"/><rect transform="matrix(0 -1 -1 0 90 -20)" width="40" height="40" x="-280" y="-188" rx="20" fill="#ff7043"/><g class="C"><use xlink:href="#T" x="90" y="-20" class="E"/><path d="M258 229a3.99 3.99 0 0 0-4 4v8a3.99 3.99 0 1 0 8 0v-8a3.99 3.99 0 0 0-4-4zm-8 10v2c0 4.135 3.053 7.516 7 7.951V252h2v-3.049c3.947-.435 7-3.816 7-7.951v-2h-2v2c0 3.324-2.676 6-6 6s-6-2.676-6-6v-2z"/></g><path d="M325 224v34h34v-34zm5.414 4h23.172l-5 5h-13.172zM329 229.414l5 5v13.172l-5 5zm26 0v23.172l-5-5v-13.172zM336 235h12v12h-12zm-.586 14h13.172l5 5h-23.172z" class="B"/><path d="M325 223v34h34v-34zm5.414 4h23.172l-5 5h-13.172zM329 228.414l5 5v13.172l-5 5zm26 0v23.172l-5-5v-13.172zM336 234h12v12h-12zm-.586 14h13.172l5 5h-23.172z" fill="#c4c4c4" class="D"/><path d="M325 223v1h34v-1zm5.414 5l5 5h13.172l5-5h-1l-4 4h-13.172l-4-4zM336 246v1h12v-1zm-2 .586l-5 5v1l5-5zm16 0v1l5 5v-1zM331.414 253l-1 1h23.172l-1-1z" class="B C"/><use xlink:href="#a" class="B"/><use xlink:href="#a" y="-1" fill="#d8d8d8" class="D"/><path d="M327 220a5 5 0 0 0-4.973 5.516 5 5 0 0 1 9.945-.031L332 225a5 5 0 0 0-5-5zm30 0a5 5 0 0 0-4.973 5.516 5 5 0 0 1 9.945-.031L362 225a5 5 0 0 0-5-5zm-22 10a3 3 0 0 0-2.957 3.486 3 3 0 0 1 5.914.027A3 3 0 0 0 335 230zm14 0a3 3 0 0 0-2.957 3.486 3 3 0 0 1 5.914.027A3 3 0 0 0 349 230zm-14 14a3 3 0 0 0-2.957 3.486 3 3 0 0 1 5.914.027A3 3 0 0 0 335 244zm14 0a3 3 0 0 0-2.957 3.486 3 3 0 0 1 5.914.027A3 3 0 0 0 349 244zm-22 6a5 5 0 0 0-4.973 5.516 5 5 0 0 1 9.945-.031L332 255a5 5 0 0 0-5-5zm30 0a5 5 0 0 0-4.973 5.516 5 5 0 0 1 9.945-.031L362 255a5 5 0 0 0-5-5z" class="B C"/></g></svg>
