<svg xmlns="http://www.w3.org/2000/svg" width="600" height="224"><defs><filter id="A" x="-.032" width="1.065" y="-.019" height="1.038" color-interpolation-filters="sRGB"><feGaussianBlur stdDeviation=".135"/></filter><filter id="B" x="-.013" width="1.026" y="-.192" height="1.384" color-interpolation-filters="sRGB"><feGaussianBlur stdDeviation=".16"/></filter></defs><path d="M1 24.216h30c0 1-1 2-2 2H3c-1 0-2-1-2-2z" transform="matrix(8 0 0 8 172 -10)" opacity=".2" filter="url(#B)"/><rect width="208" height="144" x="196" y="22" rx="8" fill="#4f4f4f"/><path d="M212 38h176v112H212z" fill="#ccc"/><path d="M196 166l-16 16h240l-16-16z" fill="#8e8e8e"/><path d="M180 182h240c0 8-8 16-16 16H196c-8 0-16-8-16-16z" fill="#4f4f4f"/><rect width="10" height="17" x="21" y="10.276" rx="1" transform="matrix(8 0 0 8 172 -10)" opacity=".2" filter="url(#A)"/><rect rx="8" y="70" x="340" height="136" width="80" fill="#455a64"/><path d="M348 78h64v120h-64z" fill="#78909c"/><path d="M281.538 110.025l4.605 7.975h27.714l4.605-7.975zM327.692 94l-4.645 8.049h-29.472l29.472-16.098zm-55.384 0l4.645-8.049h29.472l-29.472 16.098zm9.23-16.025L286.143 70h27.714l4.605 7.975z" fill="#4f4f4f"/><path d="M370.769 146.012l2.302 3.988h13.857l2.302-3.988zM393.846 138l-2.322 4.025h-14.736l14.736-8.049zm-27.692 0l2.322-4.025h14.736l-14.736 8.049zm4.615-8.012l2.302-3.988h13.857l2.302 3.988z" fill="#455a64"/></svg>
