<svg xmlns="http://www.w3.org/2000/svg" xmlns:xlink="http://www.w3.org/1999/xlink" width="600" height="200"><style><![CDATA[.C{opacity:.1}.D{opacity:.2}.E{fill:#fff}.F{opacity:.333}.G{filter:url(#I)}.H{color-interpolation-filters:sRGB}]]></style><defs><path id="A" d="M264.002-160a23.95 23.95 0 0 0-24 24v352a23.95 23.95 0 0 0 24 24H664a23.95 23.95 0 0 0 24-24v-352a23.95 23.95 0 0 0-24-24z"/><path id="B" d="M221 77.5c-3.324 0-6 2.676-6 6v88c0 3.324 2.676 6 6 6h100c3.324 0 6-2.676 6-6v-88c0-3.324-2.676-6-6-6z"/><path id="C" d="M221 177c-3.324 0-6-2.676-6-6v-6h112v6c0 3.324-2.676 6-6 6z"/><linearGradient id="D" x1="219.024" y1="216.017" x2="232.913" y2="215.998" gradientUnits="userSpaceOnUse"><stop offset="0" stop-color="#029be9"/><stop offset="1" stop-color="#22c5fd"/></linearGradient><linearGradient id="E" x1="300" y1="207" x2="300" y2="74.75" gradientUnits="userSpaceOnUse"><stop offset="0" stop-color="#22c5fd"/><stop offset="1" stop-color="#029be9"/></linearGradient><filter id="F" x="-.023" width="1.045" y="-.025" height="1.051" class="H"><feGaussianBlur stdDeviation="4.24"/></filter><linearGradient id="G" x1="492" y1="89" x2="492" y2="225.25" gradientUnits="userSpaceOnUse"><stop offset="0" stop-color="#ff6a32"/><stop offset="1" stop-color="#ff8265"/></linearGradient><linearGradient id="H" x1="108" y1="39" x2="108" y2="175.25" gradientUnits="userSpaceOnUse"><stop offset="0" stop-color="#1bbe81"/><stop offset="1" stop-color="#2ae18e"/></linearGradient><filter id="I" x="-.034" width="1.068" y="-.038" height="1.076" class="H"><feGaussianBlur stdDeviation="6.36"/></filter><path id="J" d="M844.057-49.236a23.95 23.95 0 0 0-24 24v352a23.95 23.95 0 0 0 24 24h399.998a23.95 23.95 0 0 0 24-24v-352a23.95 23.95 0 0 0-24-24z"/><path id="K" d="M417 75.75a8.98 8.98 0 0 0-9 9v132a8.98 8.98 0 0 0 9 9h149.999a8.98 8.98 0 0 0 9-9v-132a8.98 8.98 0 0 0-9-9z"/><path id="L" d="M417 75a8.98 8.98 0 0 0-9 9v5h168v-5a8.98 8.98 0 0 0-9-9z"/></defs><g transform="translate(0 -50)"><g transform="matrix(.375 0 0 .375 126.08362 136.49999)" class="G"><use xlink:href="#A" class="C"/><use xlink:href="#A" opacity=".3"/></g><g transform="matrix(1.5 0 0 1.5 -193.41598 -16.500081)"><use y="-16" x="58" xlink:href="#B" class="D"/><use y="-16" x="58" xlink:href="#C" class="E"/></g><path d="M216.084 207V84a8.98 8.98 0 0 1 9-9h150a8.98 8.98 0 0 1 9 9v123z" fill="url(#E)"/><path d="M216.084 215.25v.75a8.98 8.98 0 0 0 9 9h150a8.98 8.98 0 0 0 9-9v-.75a8.98 8.98 0 0 1-9 9h-150a8.98 8.98 0 0 1-9-9z" class="D"/><path d="M225.084 75a8.98 8.98 0 0 0-9 9v.75a8.98 8.98 0 0 1 9-9h150a8.98 8.98 0 0 1 9 9V84a8.98 8.98 0 0 0-9-9z" class="C E"/><rect rx="4" y="209" x="219" height="14" width="14" opacity=".8" fill="url(#D)"/><g class="E"><path d="M222.539 219.005l.863 1.495h5.196l.864-1.495zm8.654-3.005l-.871 1.509h-5.526l5.526-3.018zm-10.385 0l.871-1.509h5.526l-5.526 3.018zm1.731-3.005l.863-1.495h5.196l.864 1.495z"/><rect width="75" height="90" x="219" y="115" rx="4"/></g><g fill="#e4e8ee"><g transform="matrix(.5 0 0 .5 150 67.500002)"><rect rx="4" y="259" x="144" height="10" width="75"/><circle r="6" cy="263" cx="276"/><circle cx="261" cy="263" r="6"/><circle r="6" cy="263" cx="246"/><circle cx="231" cy="263" r="6"/></g><circle r="3" cy="121" cx="265.5"/><path d="M270.5 120.5h17v1h-17zm-3 12.5h6v1h-6z"/><rect rx="1" y="132" x="262.5" height="3" width="3"/><path d="M267.5 139h9v1h-9z"/><rect width="3" height="3" x="262.5" y="138" rx="1"/><path d="M267.5 145h11v1h-11z"/><rect rx="1" y="144" x="262.5" height="3" width="3"/><path d="M267.5 151h10v1h-10z"/><rect width="3" height="3" x="262.5" y="150" rx="1"/><path d="M267.5 157h8v1h-8z"/><rect rx="1" y="156" x="262.5" height="3" width="3"/><path d="M267.5 163h9v1h-9z"/><rect width="3" height="3" x="262.5" y="162" rx="1"/><path d="M267.5 169H278v1h-10.5z"/><rect rx="1" y="168" x="262.5" height="3" width="3"/><path d="M267.5 180H279v1h-11.5z"/><rect width="3" height="3" x="262.5" y="179" rx="1"/><path d="M267.5 186H278v1h-10.5z"/><rect rx="1" y="185" x="262.5" height="3" width="3"/><path d="M230 120.5h18v1h-18z"/><rect rx="2" y="118" x="222" height="6" width="6"/><path d="M230 129.5h10v1h-10z"/><rect width="6" height="6" x="222" y="127" rx="2"/><path d="M230 138.5h13v1h-13z"/><rect rx="2" y="136" x="222" height="6" width="6"/><path d="M230 147.5h11v1h-11z"/><rect width="6" height="6" x="222" y="145" rx="2"/><path d="M230 156.5h15v1h-15z"/><rect rx="2" y="154" x="222" height="6" width="6"/><path d="M230 165.5h8v1h-8z"/><rect width="6" height="6" x="222" y="163" rx="2"/><path d="M230 174.5h12v1h-12z"/><rect rx="2" y="172" x="222" height="6" width="6"/><rect rx="2" y="212" x="237" height="8" width="8"/><rect width="8" height="8" x="249" y="212" rx="2"/><rect rx="2" y="212" x="261" height="8" width="8"/><path d="M357 215h24v2h-24z"/></g><g transform="matrix(.375 0 0 .375 100.47881 94.96348)"><use xlink:href="#J" filter="url(#F)" class="C"/><use xlink:href="#J" opacity=".3" class="G"/></g><use xlink:href="#K" class="D"/><path d="M408 89v127a8.98 8.98 0 0 0 9 9h150a8.98 8.98 0 0 0 9-9V89z" fill="url(#G)"/><g fill="#312723"><path d="M408 215.955c0 4.986 4.045 9.551 9 9h15V75h-15a8.98 8.98 0 0 0-9 9z" opacity=".75"/><use xlink:href="#L"/></g><path d="M408 215.25v.75a8.98 8.98 0 0 0 9 9h149.999a8.98 8.98 0 0 0 9-9v-.75a8.98 8.98 0 0 1-9 9H417a8.98 8.98 0 0 1-9-9z" class="D"/><path d="M417 75a8.98 8.98 0 0 0-9 9v.75a8.98 8.98 0 0 1 9-9h149.999a8.98 8.98 0 0 1 9 9V84a8.98 8.98 0 0 0-9-9z" class="C E"/><g fill="#fcc8b4"><rect rx="3" y="95" x="414" height="12" width="12" class="F"/><rect width="12" height="12" x="414" y="113" rx="3" class="F"/><rect rx="3" y="131" x="414" height="12" width="12" class="F"/><rect width="12" height="12" x="414" y="149" rx="3" class="F"/><rect rx="3" y="167" x="414" height="12" width="12" class="F"/><path d="M414 81h24v2h-24zm132 0h24v2h-24zm-60 0h12v2h-12z" class="F"/></g></g><g transform="matrix(.375 0 0 .375 -283.52119 44.96348)"><use xlink:href="#J" filter="url(#F)" class="C"/><use xlink:href="#J" opacity=".3" class="G"/></g><use xlink:href="#K" x="-384" y="-50" class="D"/><path d="M24 39v127a8.98 8.98 0 0 0 9 9h150a8.98 8.98 0 0 0 9-9V39z" fill="url(#H)"/><g class="E"><rect rx="12" y="145" x="58" height="24" width="100"/><use xlink:href="#L" x="-384" y="-50"/></g><path d="M24 165.25v.75a8.98 8.98 0 0 0 9 9h149.999a8.98 8.98 0 0 0 9-9v-.75a8.98 8.98 0 0 1-9 9H33a8.98 8.98 0 0 1-9-9z" class="D"/><path d="M33 25a8.98 8.98 0 0 0-9 9v.75a8.98 8.98 0 0 1 9-9h149.999a8.98 8.98 0 0 1 9 9V34a8.98 8.98 0 0 0-9-9z" class="C E"/><g transform="scale(-1)" fill="#e5eceb"><rect width="12" height="12" x="-150" y="-163" rx="3"/><rect rx="3" y="-163" x="-132" height="12" width="12"/><rect width="12" height="12" x="-114" y="-163" rx="3"/><rect rx="3" y="-163" x="-96" height="12" width="12"/><rect width="12" height="12" x="-78" y="-163" rx="3"/></g><path d="M43 31h24v2H43zm119 0h24v2h-24z" fill="#e5eceb"/><path d="M31.154 34.003l.575.997h3.464l.576-.997zM36.923 32l-.581 1.006h-3.684l3.684-2.012zM30 32l.581-1.006h3.684l-3.684 2.012zm1.154-2.003l.575-.997h3.464l.576.997z" fill="#d5dedd"/></svg>
